<svg width="60" height="60" viewBox="0 0 60 60" fill="none" xmlns="http://www.w3.org/2000/svg">
<rect width="60" height="60" rx="30" fill="#EEF2FF"/>
<mask id="mask0_248_5920" style="mask-type:alpha" maskUnits="userSpaceOnUse" x="16" y="16" width="28" height="28">
<g clip-path="url(#clip0_248_5920)">
<path d="M42.3426 29.8236L38.7255 26.2065C38.3808 25.8618 38.4888 25.4946 38.9631 25.3875C38.9631 25.3875 39.3555 25.2984 39.8388 24.816C40.8756 23.7792 40.8747 22.0962 39.8388 21.0612C38.8011 20.0244 37.1199 20.0244 36.0831 21.0612C35.5998 21.5445 35.5116 21.936 35.5116 21.936C35.4045 22.4112 35.0355 22.5183 34.6926 22.1727L31.0755 18.5583C30.7317 18.2136 30.1674 18.2136 29.8236 18.5583L26.2074 22.1745C25.8636 22.5192 25.9707 22.8882 26.445 22.9944C26.445 22.9944 26.8374 23.0826 27.3207 23.565C28.3557 24.6018 28.3575 26.2839 27.3207 27.3207C26.2839 28.3575 24.6009 28.3566 23.565 27.3207C23.0826 26.8374 22.9944 26.445 22.9944 26.445C22.8873 25.9698 22.5183 25.8636 22.1745 26.2074L18.5583 29.8245C18.2136 30.1683 18.2136 30.7317 18.5583 31.0755L22.1745 34.6917C22.5183 35.0355 22.4112 35.4045 21.9369 35.5116C21.9369 35.5116 21.5445 35.6007 21.0612 36.0831C20.0244 37.1208 20.0244 38.802 21.0612 39.8388C22.098 40.8747 23.7792 40.8756 24.8169 39.8388C25.3002 39.3555 25.3875 38.964 25.3875 38.964C25.4946 38.4879 25.8636 38.3817 26.2074 38.7273L29.8236 42.3417C30.1674 42.6864 30.7317 42.6864 31.0755 42.3417L34.6926 38.7255C35.0373 38.3817 34.9293 38.0118 34.455 37.9065C34.455 37.9065 34.0617 37.8174 33.5793 37.3359C32.5416 36.2982 32.5425 34.617 33.5793 33.5793C34.6161 32.5425 36.2973 32.5416 37.335 33.5793C37.8174 34.0626 37.9047 34.455 37.9047 34.455C38.0127 34.9311 38.3808 35.0382 38.7255 34.6935L42.3426 31.0764C42.6855 30.7308 42.6855 30.1683 42.3426 29.8236Z" fill="black"/>
</g>
</mask>
<g mask="url(#mask0_248_5920)">
<rect x="16.5" y="16.5" width="27" height="27" fill="#20479E"/>
</g>
<defs>
<clipPath id="clip0_248_5920">
<rect width="27" height="27" fill="white" transform="translate(16.5 16.5)"/>
</clipPath>
</defs>
</svg>
