<svg width="60" height="60" viewBox="0 0 60 60" fill="none" xmlns="http://www.w3.org/2000/svg">
<rect width="60" height="60" rx="30" fill="#EEF2FF"/>
<mask id="mask0_248_5942" style="mask-type:alpha" maskUnits="userSpaceOnUse" x="16" y="16" width="28" height="28">
<g clip-path="url(#clip0_248_5942)">
<g clip-path="url(#clip1_248_5942)">
<path d="M23.8474 22.7289L21.61 20.4915C21.3013 20.1828 20.8009 20.1828 20.4913 20.4915C20.1826 20.8011 20.1826 21.3015 20.4913 21.6102L22.7287 23.8476C23.0374 24.1563 23.5387 24.1563 23.8474 23.8476C24.1561 23.5389 24.1561 23.0376 23.8474 22.7289Z" fill="black"/>
<path d="M20.5077 29.209H17.2911C16.8537 29.209 16.5 29.5627 16.5 30.0001C16.5 30.4375 16.8537 30.7912 17.2911 30.7912H20.5077C20.9451 30.7912 21.2988 30.4375 21.2988 30.0001C21.2988 29.5627 20.9451 29.209 20.5077 29.209Z" fill="black"/>
<path d="M42.7089 29.209H39.4923C39.0549 29.209 38.7012 29.5627 38.7012 30.0001C38.7012 30.4375 39.0549 30.7912 39.4923 30.7912H42.7089C43.1463 30.7912 43.5 30.4375 43.5 30.0001C43.5 29.5627 43.1463 29.209 42.7089 29.209Z" fill="black"/>
<path d="M39.5066 20.4915C39.1979 20.1828 38.6966 20.1828 38.3879 20.4915L36.1505 22.7289C35.8418 23.0376 35.8418 23.5389 36.1505 23.8476C36.4601 24.1563 36.9605 24.1563 37.2692 23.8476L39.5066 21.6102C39.8153 21.3015 39.8153 20.8011 39.5066 20.4915Z" fill="black"/>
<path d="M30.0001 16.5C29.5627 16.5 29.209 16.8537 29.209 17.2911V20.5077C29.209 20.9451 29.5627 21.2988 30.0001 21.2988C30.4375 21.2988 30.7912 20.9451 30.7912 20.5077V17.2911C30.7912 16.8537 30.4375 16.5 30.0001 16.5Z" fill="black"/>
<path d="M34.4301 24.4165C32.7057 23.0557 30.4746 22.5652 28.2912 23.0872C25.7604 23.6731 23.7192 25.6819 23.1027 28.1974C22.4853 30.7282 23.1972 33.2914 25.017 35.0788C25.6659 35.7277 26.0448 36.7456 26.0448 37.7896V37.9633C26.0448 38.407 26.3931 38.7544 26.8359 38.7544H33.1647C33.6075 38.7544 33.9549 38.407 33.9549 37.9633V37.7896C33.9549 36.7609 34.3509 35.7115 35.0466 35.032C36.3759 33.6865 37.1193 31.8991 37.1193 30.001C37.1193 27.8176 36.1383 25.7764 34.4301 24.4165Z" fill="black"/>
<path d="M26.8354 40.3357V41.1268C26.8354 42.4354 27.9001 43.5001 29.2087 43.5001H30.7909C32.0995 43.5001 33.1633 42.4354 33.1633 41.1268V40.3357H26.8354Z" fill="black"/>
</g>
</g>
</mask>
<g mask="url(#mask0_248_5942)">
<rect x="16.5" y="16.5" width="27" height="27" fill="#20479E"/>
</g>
<defs>
<clipPath id="clip0_248_5942">
<rect width="27" height="27" fill="white" transform="translate(16.5 16.5)"/>
</clipPath>
<clipPath id="clip1_248_5942">
<rect width="27" height="27" fill="white" transform="translate(16.5 16.5)"/>
</clipPath>
</defs>
</svg>
