<svg width="27" height="27" viewBox="0 0 27 27" fill="none" xmlns="http://www.w3.org/2000/svg">
<mask id="mask0_248_6098" style="mask-type:alpha" maskUnits="userSpaceOnUse" x="0" y="0" width="27" height="27">
<g clip-path="url(#clip0_248_6098)">
<path d="M25.072 2.14568C25.0504 2.04758 24.9739 1.97108 24.8821 1.94408C21.7033 1.16828 14.3647 3.93668 10.3885 7.91648C9.6784 8.62208 9.0331 9.38798 8.458 10.2025C7.2322 10.0936 6.0064 10.1863 4.9597 10.6417C2.0086 11.9395 1.1518 15.3325 0.906997 16.7878C0.858397 17.0704 1.0483 17.3422 1.3363 17.3908C1.3849 17.3962 1.4335 17.4016 1.4821 17.3962L6.2179 16.8751C6.2233 17.2333 6.2449 17.5915 6.2827 17.9443C6.3043 18.1891 6.4186 18.4222 6.5923 18.5959L8.4256 20.4256C8.5984 20.5993 8.8324 20.7136 9.0763 20.7352C9.4291 20.773 9.781 20.7946 10.1392 20.8L9.619 25.5349C9.5857 25.822 9.7972 26.083 10.0852 26.11C10.1338 26.1154 10.1824 26.1154 10.2265 26.1046C11.68 25.8715 15.0748 25.0138 16.3663 22.06C16.8217 21.0115 16.9144 19.7902 16.8109 18.5689C17.6299 17.9929 18.3949 17.3422 19.0996 16.6357C23.0866 12.6676 25.837 5.48378 25.072 2.14568ZM18.7963 11.8963C17.782 12.9115 16.1332 12.9169 15.1189 11.8963C14.0992 10.8811 14.0992 9.23048 15.1189 8.20988C16.1332 7.18928 17.782 7.18928 18.8017 8.20988C19.816 9.23048 19.816 10.8811 18.7963 11.8963Z" fill="black"/>
<path d="M8.3014 21.7496C8.0035 22.0484 7.5256 22.1627 6.9514 22.2653C5.6599 22.4831 4.5214 21.3698 4.7545 20.0666C4.8409 19.5725 5.1073 18.8777 5.2693 18.7148C5.362 18.623 5.3674 18.4709 5.2747 18.3782C5.2207 18.3242 5.1505 18.2972 5.074 18.308C4.3531 18.3944 3.6799 18.7256 3.1705 19.2359C1.8907 20.5175 1.771 25.2569 1.771 25.2569C1.771 25.2569 6.5113 25.1381 7.7866 23.8565C8.3014 23.3408 8.6272 22.673 8.7136 21.9449C8.7352 21.7226 8.4589 21.5867 8.3014 21.7496Z" fill="black"/>
</g>
</mask>
<g mask="url(#mask0_248_6098)">
<rect width="27" height="27" fill="#20479E"/>
</g>
<defs>
<clipPath id="clip0_248_6098">
<rect width="27" height="27" fill="white"/>
</clipPath>
</defs>
</svg>
