<svg width="15" height="13" viewBox="0 0 15 13" fill="none" xmlns="http://www.w3.org/2000/svg">
<path d="M9.031 12.7498H5.64893C2.58096 12.7498 0.034276 10.3027 0.000409126 7.23803C-0.00962067 6.49423 0.129738 5.75597 0.410229 5.06701C0.69072 4.37805 1.10664 3.75238 1.63334 3.22709C3.16533 1.77877 6.906 0.142524 6.906 0.142524C7.03056 0.0705501 7.16845 0.0246233 7.3113 0.00752803C7.45414 -0.00956719 7.59897 0.00252523 7.737 0.0430721C7.87504 0.0836189 8.0034 0.151776 8.1143 0.24341C8.22521 0.335044 8.31635 0.448248 8.38221 0.576157C8.64783 1.08483 8.43799 1.7117 7.9426 1.99725L5.52275 3.39178C5.45308 3.43057 5.39643 3.48908 5.35991 3.55998C5.32341 3.63087 5.30867 3.71097 5.31756 3.79022V3.79819C5.33952 3.9258 5.4063 4.04138 5.50587 4.12416C5.60544 4.20694 5.73129 4.25147 5.86076 4.24975H13.8122C13.9562 4.24958 14.0987 4.27866 14.231 4.33523C14.3634 4.39179 14.4829 4.47466 14.5822 4.5788C14.6816 4.68295 14.7587 4.80619 14.809 4.94106C14.8593 5.07593 14.8817 5.21961 14.8747 5.36338C14.8482 5.93514 14.3554 6.37475 13.7837 6.37475H9.031C8.95817 6.37459 8.88609 6.38941 8.81922 6.41828C8.75236 6.44715 8.69215 6.48946 8.64233 6.54258C8.59251 6.5957 8.55415 6.6585 8.52962 6.72707C8.50509 6.79564 8.49492 6.86853 8.49975 6.9412C8.51148 7.0778 8.5745 7.2049 8.67614 7.29693C8.77778 7.38896 8.9105 7.4391 9.0476 7.43725H10.0935C10.2374 7.43708 10.3799 7.46617 10.5123 7.52273C10.6446 7.57929 10.7641 7.66216 10.8635 7.7663C10.9628 7.87045 11.04 7.99369 11.0903 8.12856C11.1406 8.26343 11.1629 8.40711 11.156 8.55088C11.1294 9.12264 10.6367 9.56225 10.0649 9.56225H8.49975C8.42692 9.56209 8.35484 9.57691 8.28797 9.60578C8.22111 9.63465 8.1609 9.67696 8.11108 9.73008C8.06126 9.7832 8.0229 9.846 7.99837 9.91457C7.97384 9.98314 7.96367 10.056 7.9685 10.1287C7.98023 10.2653 8.04325 10.3924 8.14489 10.4844C8.24653 10.5765 8.37925 10.6266 8.51635 10.6248H8.99978C9.57154 10.6248 10.0623 11.0644 10.0908 11.6361C10.0978 11.7797 10.0755 11.9231 10.0254 12.0578C9.97523 12.1925 9.8983 12.3156 9.79923 12.4197C9.70015 12.5238 9.58099 12.6068 9.44894 12.6635C9.31689 12.7202 9.17471 12.7496 9.031 12.7498Z" fill="#20479E"/>
</svg>
