<svg width="60" height="60" viewBox="0 0 60 60" fill="none" xmlns="http://www.w3.org/2000/svg">
<rect width="60" height="60" rx="30" fill="#EEF2FF"/>
<mask id="mask0_248_5931" style="mask-type:alpha" maskUnits="userSpaceOnUse" x="16" y="16" width="28" height="28">
<g clip-path="url(#clip0_248_5931)">
<g clip-path="url(#clip1_248_5931)">
<path d="M43.2527 21.8191C43.0763 21.6418 42.8297 21.5527 42.5804 21.5752L33.5228 22.3942C33.197 22.4239 32.9171 22.639 32.8055 22.9468C32.6939 23.2555 32.7713 23.5993 33.0026 23.8315L34.9232 25.7521L31.0415 29.6356L26.5613 25.1554C26.2319 24.826 25.6973 24.826 25.3679 25.1554L16.7477 33.7765C16.4174 34.1059 16.4174 34.6396 16.7477 34.969L19.9508 38.1748C20.1155 38.3395 20.3315 38.4214 20.5475 38.4214C20.7635 38.4214 20.9795 38.3395 21.1442 38.1748L25.9646 33.3535L30.4448 37.8319C30.7742 38.1613 31.3088 38.1613 31.6382 37.8319L39.3215 30.1486L41.2421 32.071C41.4734 32.3023 41.8181 32.3797 42.1259 32.2672C42.4337 32.1556 42.6497 31.8766 42.6794 31.5499L43.4966 22.4914C43.5191 22.2421 43.43 21.9955 43.2527 21.8191Z" fill="black"/>
</g>
</g>
</mask>
<g mask="url(#mask0_248_5931)">
<rect x="16.5" y="16.5" width="27" height="27" fill="#20479E"/>
</g>
<defs>
<clipPath id="clip0_248_5931">
<rect width="27" height="27" fill="white" transform="translate(16.5 16.5)"/>
</clipPath>
<clipPath id="clip1_248_5931">
<rect width="27" height="27" fill="white" transform="translate(16.5 16.5)"/>
</clipPath>
</defs>
</svg>
