<svg width="27" height="27" viewBox="0 0 27 27" fill="none" xmlns="http://www.w3.org/2000/svg">
<mask id="mask0_248_6084" style="mask-type:alpha" maskUnits="userSpaceOnUse" x="0" y="0" width="27" height="27">
<g clip-path="url(#clip0_248_6084)">
<path d="M25.8426 13.3236L22.2255 9.70653C21.8808 9.36183 21.9888 8.99463 22.4631 8.88753C22.4631 8.88753 22.8555 8.79843 23.3388 8.31603C24.3756 7.27923 24.3747 5.59623 23.3388 4.56123C22.3011 3.52443 20.6199 3.52443 19.5831 4.56123C19.0998 5.04453 19.0116 5.43603 19.0116 5.43603C18.9045 5.91123 18.5355 6.01833 18.1926 5.67273L14.5755 2.05833C14.2317 1.71363 13.6674 1.71363 13.3236 2.05833L9.70743 5.67453C9.36363 6.01923 9.47073 6.38823 9.94503 6.49443C9.94503 6.49443 10.3374 6.58263 10.8207 7.06503C11.8557 8.10183 11.8575 9.78393 10.8207 10.8207C9.78393 11.8575 8.10093 11.8566 7.06503 10.8207C6.58263 10.3374 6.49443 9.94503 6.49443 9.94503C6.38733 9.46983 6.01833 9.36363 5.67453 9.70743L2.05833 13.3245C1.71363 13.6683 1.71363 14.2317 2.05833 14.5755L5.67453 18.1917C6.01833 18.5355 5.91123 18.9045 5.43693 19.0116C5.43693 19.0116 5.04453 19.1007 4.56123 19.5831C3.52443 20.6208 3.52443 22.302 4.56123 23.3388C5.59803 24.3747 7.27923 24.3756 8.31693 23.3388C8.80023 22.8555 8.88753 22.464 8.88753 22.464C8.99463 21.9879 9.36363 21.8817 9.70743 22.2273L13.3236 25.8417C13.6674 26.1864 14.2317 26.1864 14.5755 25.8417L18.1926 22.2255C18.5373 21.8817 18.4293 21.5118 17.955 21.4065C17.955 21.4065 17.5617 21.3174 17.0793 20.8359C16.0416 19.7982 16.0425 18.117 17.0793 17.0793C18.1161 16.0425 19.7973 16.0416 20.835 17.0793C21.3174 17.5626 21.4047 17.955 21.4047 17.955C21.5127 18.4311 21.8808 18.5382 22.2255 18.1935L25.8426 14.5764C26.1855 14.2308 26.1855 13.6683 25.8426 13.3236Z" fill="black"/>
</g>
</mask>
<g mask="url(#mask0_248_6084)">
<rect width="27" height="27" fill="#20479E"/>
</g>
<defs>
<clipPath id="clip0_248_6084">
<rect width="27" height="27" fill="white"/>
</clipPath>
</defs>
</svg>
