<svg width="44" height="44" viewBox="0 0 44 44" fill="none" xmlns="http://www.w3.org/2000/svg">
<g clip-path="url(#clip0_343_3058)">
<g clip-path="url(#clip1_343_3058)">
<path opacity="0.4" d="M20.4824 39.6441L5.50444 32.8361C4.07144 32.1841 4.07144 30.1491 5.50444 29.4981L20.4824 22.6901C20.959 22.4734 21.4764 22.3613 21.9999 22.3613C22.5234 22.3613 23.0409 22.4734 23.5174 22.6901L38.4944 29.4981C39.9274 30.1481 39.9274 32.1841 38.4944 32.8361L23.5174 39.6441C23.0409 39.8607 22.5234 39.9728 21.9999 39.9728C21.4764 39.9728 20.959 39.8607 20.4824 39.6441Z" fill="#007AFF"/>
<path d="M20.4824 30.4771L5.50444 23.6691C4.07144 23.0181 4.07144 20.9821 5.50444 20.3311L20.4824 13.5231C20.959 13.3064 21.4764 13.1943 21.9999 13.1943C22.5234 13.1943 23.0409 13.3064 23.5174 13.5231L38.4944 20.3311C39.9274 20.9821 39.9274 23.0181 38.4944 23.6691L23.5174 30.4771C23.0409 30.6937 22.5234 30.8058 21.9999 30.8058C21.4764 30.8058 20.959 30.6937 20.4824 30.4771Z" fill="#007AFF"/>
<path opacity="0.4" d="M20.4824 21.3101L5.50444 14.5021C4.07144 13.8511 4.07144 11.8161 5.50444 11.1641L20.4824 4.35607C20.959 4.13943 21.4764 4.02734 21.9999 4.02734C22.5234 4.02734 23.0409 4.13943 23.5174 4.35607L38.4944 11.1641C39.9274 11.8161 39.9274 13.8511 38.4944 14.5021L23.5174 21.3101C23.0409 21.5267 22.5234 21.6388 21.9999 21.6388C21.4764 21.6388 20.959 21.5267 20.4824 21.3101Z" fill="#007AFF"/>
</g>
</g>
<defs>
<clipPath id="clip0_343_3058">
<rect width="44" height="44" rx="10" fill="white"/>
</clipPath>
<clipPath id="clip1_343_3058">
<rect width="44" height="44" fill="white"/>
</clipPath>
</defs>
</svg>
