<svg width="44" height="44" viewBox="0 0 44 44" fill="none" xmlns="http://www.w3.org/2000/svg">
<g clip-path="url(#clip0_343_3079)">
<g clip-path="url(#clip1_343_3079)">
<path opacity="0.4" d="M36.666 23.833C36.666 32.946 29.279 40.333 20.166 40.333C11.053 40.333 3.66602 32.946 3.66602 23.833C3.66602 14.721 11.053 7.33301 20.166 7.33301C29.279 7.33301 36.666 14.721 36.666 23.833Z" fill="#007AFF"/>
<path d="M40.226 20.0029C39.302 11.4729 32.526 4.69795 23.996 3.77395C22.9 3.65495 22 4.56195 22 5.66695V19.9999C22 20.5304 22.2107 21.0391 22.5858 21.4142C22.9609 21.7892 23.4696 21.9999 24 21.9999H38.333C39.438 21.9999 40.345 21.1009 40.226 20.0029Z" fill="#007AFF"/>
</g>
</g>
<defs>
<clipPath id="clip0_343_3079">
<rect width="44" height="44" rx="10" fill="white"/>
</clipPath>
<clipPath id="clip1_343_3079">
<rect width="44" height="44" fill="white"/>
</clipPath>
</defs>
</svg>
