<svg width="44" height="44" viewBox="0 0 44 44" fill="none" xmlns="http://www.w3.org/2000/svg">
<g clip-path="url(#clip0_344_4095)">
<g clip-path="url(#clip1_344_4095)">
<path opacity="0.4" d="M38.7378 18.064C40.8638 20.301 40.8638 23.699 38.7378 25.936C35.1528 29.709 28.9938 34.833 21.9988 34.833C15.0038 34.833 8.84577 29.709 5.25977 25.936C3.13477 23.699 3.13477 20.301 5.25977 18.064C8.84577 14.291 15.0038 9.16699 21.9998 9.16699C28.9938 9.16699 35.1528 14.291 38.7378 18.064Z" fill="#007AFF"/>
<path d="M22 27.5C25.0376 27.5 27.5 25.0376 27.5 22C27.5 18.9624 25.0376 16.5 22 16.5C18.9624 16.5 16.5 18.9624 16.5 22C16.5 25.0376 18.9624 27.5 22 27.5Z" fill="#007AFF"/>
</g>
</g>
<defs>
<clipPath id="clip0_344_4095">
<rect width="44" height="44" rx="10" fill="white"/>
</clipPath>
<clipPath id="clip1_344_4095">
<rect width="44" height="44" fill="white"/>
</clipPath>
</defs>
</svg>
