<svg width="11" height="11" viewBox="0 0 11 11" fill="none" xmlns="http://www.w3.org/2000/svg">
<path d="M2.34375 10.4766H0.164062V3.46875H2.34375V10.4766ZM1.24219 2.53125C0.5625 2.53125 0 1.94531 0 1.24219C0 0.5625 0.5625 0 1.24219 0C1.94531 0 2.50781 0.5625 2.50781 1.24219C2.50781 1.94531 1.94531 2.53125 1.24219 2.53125ZM10.4766 10.4766H8.32031V7.07812C8.32031 6.25781 8.29688 5.22656 7.17188 5.22656C6.04688 5.22656 5.88281 6.09375 5.88281 7.00781V10.4766H3.70312V3.46875H5.78906V4.42969H5.8125C6.11719 3.89062 6.82031 3.30469 7.875 3.30469C10.0781 3.30469 10.5 4.75781 10.5 6.63281V10.4766H10.4766Z" fill="#1A202C"/>
</svg>
