<svg width="23" height="24" viewBox="0 0 23 24" fill="none" xmlns="http://www.w3.org/2000/svg">
<g clip-path="url(#clip0_16_535)">
<g clip-path="url(#clip1_16_535)">
<g clip-path="url(#clip2_16_535)">
<path d="M23 11.5894C23 12.5707 21.7944 13.3796 21.5529 14.2842C21.3037 15.2196 21.9343 16.5229 21.4609 17.3413C20.9798 18.1731 19.5327 18.2728 18.8581 18.9475C18.1834 19.6221 18.0837 21.0692 17.2519 21.5503C16.4335 22.0237 15.1302 21.3931 14.1948 21.6423C13.2902 21.8838 12.4813 23.0894 11.5 23.0894C10.5187 23.0894 9.70983 21.8838 8.80517 21.6423C7.86983 21.3931 6.5665 22.0237 5.74808 21.5503C4.91625 21.0692 4.81658 19.6221 4.14192 18.9475C3.46725 18.2728 2.02017 18.1731 1.53908 17.3413C1.06567 16.5229 1.69625 15.2196 1.44708 14.2842C1.20558 13.3796 0 12.5707 0 11.5894C0 10.6081 1.20558 9.79919 1.44708 8.89453C1.69625 7.95919 1.06567 6.65586 1.53908 5.83744C2.02017 5.00561 3.46725 4.90594 4.14192 4.23128C4.81658 3.55661 4.91625 2.10953 5.74808 1.62844C6.5665 1.15503 7.86983 1.78561 8.80517 1.53644C9.70983 1.29494 10.5187 0.0893555 11.5 0.0893555C12.4813 0.0893555 13.2902 1.29494 14.1948 1.53644C15.1302 1.78561 16.4335 1.15503 17.2519 1.62844C18.0837 2.10953 18.1834 3.55661 18.8581 4.23128C19.5327 4.90594 20.9798 5.00561 21.4609 5.83744C21.9343 6.65586 21.3037 7.95919 21.5529 8.89453C21.7944 9.79919 23 10.6081 23 11.5894Z" fill="#118B36"/>
<path d="M14.8233 8.16241L10.4456 12.5401L8.17632 10.2727C7.68373 9.78007 6.88448 9.78007 6.3919 10.2727C5.89932 10.7652 5.89932 11.5645 6.3919 12.0571L9.57548 15.2407C10.0546 15.7198 10.8328 15.7198 11.312 15.2407L16.6058 9.94682C17.0984 9.45424 17.0984 8.65499 16.6058 8.16241C16.1132 7.66982 15.3159 7.66982 14.8233 8.16241Z" fill="white"/>
</g>
</g>
</g>
<defs>
<clipPath id="clip0_16_535">
<rect width="23" height="24" fill="white"/>
</clipPath>
<clipPath id="clip1_16_535">
<rect width="23" height="24" fill="white"/>
</clipPath>
<clipPath id="clip2_16_535">
<rect width="23" height="24" fill="white"/>
</clipPath>
</defs>
</svg>
