<svg width="64" height="64" viewBox="0 0 64 64" fill="none" xmlns="http://www.w3.org/2000/svg">
<circle cx="32" cy="32" r="31.5" stroke="#EEF2FF"/>
<circle cx="32" cy="32" r="28" fill="#EEF2FF"/>
<path d="M36 45.3332H28C21.3333 45.3332 18.6667 42.6665 18.6667 35.9998V27.9998C18.6667 21.3332 21.3333 18.6665 28 18.6665H36C42.6667 18.6665 45.3333 21.3332 45.3333 27.9998V35.9998C45.3333 42.6665 42.6667 45.3332 36 45.3332Z" fill="white"/>
<path d="M27.5625 35.1066C27.5625 36.8266 28.8825 38.2133 30.5225 38.2133H33.8692C35.2958 38.2133 36.4558 37 36.4558 35.5066C36.4558 33.88 35.7492 33.3066 34.6958 32.9333L29.3225 31.0666C28.2692 30.6933 27.5625 30.12 27.5625 28.4933C27.5625 27 28.7225 25.7866 30.1492 25.7866H33.4958C35.1358 25.7866 36.4558 27.1733 36.4558 28.8933" stroke="#20479E" stroke-width="2" stroke-linecap="round" stroke-linejoin="round"/>
<path d="M32 24V40" stroke="#20479E" stroke-width="2" stroke-linecap="round" stroke-linejoin="round"/>
<rect x="40" y="40" width="24" height="24" rx="12" fill="#20479E"/>
<g clip-path="url(#clip0_12_1885)">
<path d="M47.3333 51.9998L50.6667 55.3332L57.3333 48.6665" stroke="white" stroke-width="2" stroke-linecap="round" stroke-linejoin="round"/>
</g>
<defs>
<clipPath id="clip0_12_1885">
<rect width="16" height="16" fill="white" transform="translate(44 44)"/>
</clipPath>
</defs>
</svg>
