<svg width="177" height="32" viewBox="0 0 177 32" fill="none" xmlns="http://www.w3.org/2000/svg">
<g clip-path="url(#clip0_12_1647)">
<g clip-path="url(#clip1_12_1647)">
<path d="M51.1351 7.51972C49.9475 6.97212 48.6252 6.66666 47.2315 6.66666C42.0769 6.66666 37.8982 10.8453 37.8982 16C37.8982 21.1547 42.0769 25.3333 47.2315 25.3333C48.6252 25.3333 49.9475 25.0279 51.1352 24.4803C48.3069 28.9966 43.2866 32 37.5648 32C28.7283 32 21.5648 24.8366 21.5648 16C21.5648 7.16344 28.7283 0 37.5648 0C43.2866 0 48.3069 3.00341 51.1351 7.51972Z" fill="#EF4444"/>
<path d="M51.1351 16C51.1351 18.1559 49.3874 19.9036 47.2315 19.9036C45.0756 19.9036 43.3279 18.1559 43.3279 16C43.3279 13.8441 45.0756 12.0964 47.2315 12.0964C49.3874 12.0964 51.1351 13.8441 51.1351 16Z" fill="#EF4444"/>
<path d="M68.4332 24.312C67.2972 24.312 66.2292 24.088 65.2292 23.64C64.2292 23.184 63.3492 22.556 62.5892 21.756C61.8372 20.956 61.2452 20.032 60.8132 18.984C60.3892 17.928 60.1772 16.8 60.1772 15.6C60.1772 14.392 60.3892 13.264 60.8132 12.216C61.2452 11.16 61.8372 10.236 62.5892 9.444C63.3492 8.644 64.2292 8.02 65.2292 7.572C66.2292 7.116 67.2972 6.888 68.4332 6.888C69.7932 6.888 71.0452 7.204 72.1892 7.836C73.3332 8.46 74.2812 9.296 75.0332 10.344L72.0812 11.94C71.6332 11.412 71.0932 10.992 70.4612 10.68C69.8292 10.36 69.1532 10.2 68.4332 10.2C67.7532 10.2 67.1132 10.34 66.5132 10.62C65.9132 10.9 65.3852 11.288 64.9292 11.784C64.4812 12.28 64.1292 12.852 63.8732 13.5C63.6172 14.148 63.4892 14.848 63.4892 15.6C63.4892 16.344 63.6172 17.044 63.8732 17.7C64.1292 18.348 64.4812 18.92 64.9292 19.416C65.3852 19.904 65.9132 20.292 66.5132 20.58C67.1132 20.86 67.7532 21 68.4332 21C69.1612 21 69.8372 20.84 70.4612 20.52C71.0932 20.2 71.6332 19.776 72.0812 19.248L75.0332 20.856C74.2812 21.896 73.3332 22.732 72.1892 23.364C71.0452 23.996 69.7932 24.312 68.4332 24.312ZM81.8981 24.312C80.7941 24.312 79.7861 24.028 78.8741 23.46C77.9701 22.892 77.2461 22.132 76.7021 21.18C76.1661 20.22 75.8981 19.16 75.8981 18C75.8981 17.12 76.0541 16.3 76.3661 15.54C76.6781 14.772 77.1061 14.1 77.6501 13.524C78.2021 12.94 78.8421 12.484 79.5701 12.156C80.2981 11.828 81.0741 11.664 81.8981 11.664C83.0021 11.664 84.0061 11.948 84.9101 12.516C85.8221 13.084 86.5461 13.848 87.0821 14.808C87.6261 15.768 87.8981 16.832 87.8981 18C87.8981 18.872 87.7421 19.688 87.4301 20.448C87.1181 21.208 86.6861 21.88 86.1341 22.464C85.5901 23.04 84.9541 23.492 84.2261 23.82C83.5061 24.148 82.7301 24.312 81.8981 24.312ZM81.8981 21C82.4101 21 82.8701 20.864 83.2781 20.592C83.6861 20.312 84.0061 19.944 84.2381 19.488C84.4701 19.032 84.5861 18.536 84.5861 18C84.5861 17.448 84.4621 16.944 84.2141 16.488C83.9741 16.024 83.6501 15.656 83.2421 15.384C82.8341 15.112 82.3861 14.976 81.8981 14.976C81.3941 14.976 80.9381 15.116 80.5301 15.396C80.1221 15.676 79.7981 16.044 79.5581 16.5C79.3261 16.956 79.2101 17.456 79.2101 18C79.2101 18.568 79.3301 19.08 79.5701 19.536C79.8181 19.984 80.1461 20.34 80.5541 20.604C80.9621 20.868 81.4101 21 81.8981 21ZM98.6334 6H101.945V24H98.6334V22.728C98.2654 23.192 97.8094 23.572 97.2654 23.868C96.7214 24.164 96.1014 24.312 95.4054 24.312C94.5334 24.312 93.7174 24.148 92.9574 23.82C92.1974 23.492 91.5254 23.04 90.9414 22.464C90.3654 21.88 89.9134 21.208 89.5854 20.448C89.2574 19.688 89.0934 18.872 89.0934 18C89.0934 17.128 89.2574 16.312 89.5854 15.552C89.9134 14.792 90.3654 14.124 90.9414 13.548C91.5254 12.964 92.1974 12.508 92.9574 12.18C93.7174 11.852 94.5334 11.688 95.4054 11.688C96.1014 11.688 96.7214 11.836 97.2654 12.132C97.8094 12.42 98.2654 12.8 98.6334 13.272V6ZM95.4534 21.132C95.9974 21.132 96.4894 20.992 96.9294 20.712C97.3694 20.432 97.7174 20.056 97.9734 19.584C98.2294 19.104 98.3574 18.576 98.3574 18C98.3574 17.416 98.2294 16.888 97.9734 16.416C97.7174 15.944 97.3694 15.568 96.9294 15.288C96.4894 15.008 95.9974 14.868 95.4534 14.868C94.9014 14.868 94.4014 15.008 93.9534 15.288C93.5054 15.568 93.1494 15.948 92.8854 16.428C92.6214 16.9 92.4894 17.424 92.4894 18C92.4894 18.576 92.6214 19.104 92.8854 19.584C93.1574 20.056 93.5174 20.432 93.9654 20.712C94.4134 20.992 94.9094 21.132 95.4534 21.132ZM109.883 24.312C108.779 24.312 107.771 24.028 106.859 23.46C105.955 22.892 105.231 22.128 104.687 21.168C104.151 20.208 103.883 19.148 103.883 17.988C103.883 17.116 104.039 16.3 104.351 15.54C104.663 14.772 105.091 14.1 105.635 13.524C106.187 12.94 106.827 12.484 107.555 12.156C108.283 11.828 109.059 11.664 109.883 11.664C110.835 11.664 111.703 11.868 112.487 12.276C113.279 12.684 113.947 13.24 114.491 13.944C115.043 14.648 115.435 15.444 115.667 16.332C115.907 17.22 115.947 18.144 115.787 19.104H107.459C107.563 19.456 107.723 19.776 107.939 20.064C108.163 20.344 108.435 20.568 108.755 20.736C109.083 20.904 109.459 20.992 109.883 21C110.299 21.008 110.683 20.912 111.035 20.712C111.387 20.512 111.687 20.244 111.935 19.908L115.319 20.688C114.831 21.752 114.103 22.624 113.135 23.304C112.167 23.976 111.083 24.312 109.883 24.312ZM107.339 16.656H112.439C112.335 16.256 112.159 15.896 111.911 15.576C111.663 15.256 111.363 15.004 111.011 14.82C110.667 14.636 110.291 14.544 109.883 14.544C109.483 14.544 109.107 14.636 108.755 14.82C108.411 15.004 108.115 15.256 107.867 15.576C107.627 15.888 107.451 16.248 107.339 16.656ZM117.493 24V6H120.805V24H117.493ZM123.681 12H126.993V24H123.681V12ZM125.361 10.62C124.881 10.62 124.477 10.46 124.149 10.14C123.821 9.82 123.657 9.424 123.657 8.952C123.657 8.48 123.821 8.084 124.149 7.764C124.477 7.444 124.877 7.284 125.349 7.284C125.821 7.284 126.217 7.444 126.537 7.764C126.865 8.084 127.029 8.48 127.029 8.952C127.029 9.424 126.869 9.82 126.549 10.14C126.237 10.46 125.841 10.62 125.361 10.62ZM140.899 16.368V24H137.587V17.28C137.587 16.856 137.483 16.476 137.275 16.14C137.075 15.796 136.803 15.524 136.459 15.324C136.123 15.124 135.747 15.024 135.331 15.024C134.915 15.024 134.535 15.124 134.191 15.324C133.847 15.524 133.575 15.796 133.375 16.14C133.175 16.476 133.075 16.856 133.075 17.28V24H129.763L129.751 12H133.063L133.075 12.888C133.475 12.504 133.943 12.204 134.479 11.988C135.023 11.772 135.595 11.664 136.195 11.664C137.067 11.664 137.855 11.876 138.559 12.3C139.271 12.724 139.839 13.292 140.263 14.004C140.687 14.708 140.899 15.496 140.899 16.368ZM154.457 24H150.641L148.097 19.62L146.633 21.36V24H143.321V6H146.633V16.212L150.161 12H154.481L150.365 16.932L154.457 24Z" fill="#1A202C"/>
</g>
</g>
<defs>
<clipPath id="clip0_12_1647">
<rect width="176" height="32" fill="white" transform="translate(0.349976)"/>
</clipPath>
<clipPath id="clip1_12_1647">
<rect width="176" height="32" fill="white" transform="translate(0.349976)"/>
</clipPath>
</defs>
</svg>
