<svg width="177" height="32" viewBox="0 0 177 32" fill="none" xmlns="http://www.w3.org/2000/svg">
<g clip-path="url(#clip0_12_1654)">
<g clip-path="url(#clip1_12_1654)">
<path d="M46.35 0C51.8728 0 56.35 4.47715 56.35 10V22C56.35 27.5228 51.8728 32 46.35 32H34.35C28.8272 32 24.35 27.5228 24.35 22V10C24.35 4.47715 28.8272 0 34.35 0H46.35ZM33.4369 7.68262V24.3174H36.8539V10.7275L41.7934 24.3174H47.2631V7.68262H43.8578V21.4375L38.8725 7.68262H33.4369Z" fill="#20479E"/>
<path d="M69.7742 22.9999H66.1382V5.2999H71.9222L77.8502 21.6559L77.2262 21.8119V5.2999H80.8502V22.9999H75.0302L69.1022 6.6919L69.7742 6.5359V22.9999ZM85.2027 17.7439V15.2839H93.6507L93.2907 15.9079C93.2907 15.8439 93.2907 15.7839 93.2907 15.7279C93.2907 15.6639 93.2907 15.6039 93.2907 15.5479C93.2907 15.0919 93.1827 14.6559 92.9667 14.2399C92.7507 13.8159 92.4147 13.4719 91.9587 13.2079C91.5107 12.9359 90.9347 12.7999 90.2307 12.7999C89.5267 12.7999 88.9187 12.9519 88.4067 13.2559C87.9027 13.5519 87.5147 13.9799 87.2427 14.5399C86.9787 15.0999 86.8467 15.7759 86.8467 16.5679C86.8467 17.3839 86.9747 18.0839 87.2307 18.6679C87.4947 19.2439 87.8827 19.6879 88.3947 19.9999C88.9147 20.3119 89.5587 20.4679 90.3267 20.4679C90.8227 20.4679 91.2507 20.4239 91.6107 20.3359C91.9707 20.2399 92.2627 20.1199 92.4867 19.9759C92.7187 19.8319 92.8947 19.6719 93.0147 19.4959C93.1347 19.3199 93.2067 19.1479 93.2307 18.9799H96.9027C96.8547 19.5159 96.6707 20.0439 96.3507 20.5639C96.0307 21.0759 95.5867 21.5399 95.0187 21.9559C94.4507 22.3639 93.7587 22.6879 92.9427 22.9279C92.1347 23.1679 91.2107 23.2879 90.1707 23.2879C88.7627 23.2879 87.5347 23.0079 86.4867 22.4479C85.4387 21.8799 84.6267 21.0999 84.0507 20.1079C83.4747 19.1079 83.1867 17.9559 83.1867 16.6519C83.1867 15.3319 83.4787 14.1759 84.0627 13.1839C84.6547 12.1839 85.4747 11.4079 86.5227 10.8559C87.5787 10.2959 88.7987 10.0159 90.1827 10.0159C91.5987 10.0159 92.8227 10.2999 93.8547 10.8679C94.8867 11.4279 95.6827 12.2159 96.2427 13.2319C96.8027 14.2399 97.0827 15.4159 97.0827 16.7599C97.0827 16.9599 97.0787 17.1519 97.0707 17.3359C97.0627 17.5199 97.0507 17.6559 97.0347 17.7439H85.2027ZM105.578 23.2639C105.09 23.2639 104.586 23.2199 104.066 23.1319C103.554 23.0519 103.074 22.8879 102.626 22.6399C102.186 22.3839 101.83 22.0119 101.558 21.5239C101.286 21.0359 101.15 20.3919 101.15 19.5919C101.15 19.4159 101.15 19.2359 101.15 19.0519C101.15 18.8679 101.15 18.6839 101.15 18.4999V13.1359H98.2097V10.2559H99.0377C99.5177 10.2559 99.8977 10.2359 100.178 10.1959C100.466 10.1559 100.678 10.0559 100.814 9.8959C100.958 9.7279 101.05 9.4679 101.09 9.1159C101.13 8.7639 101.15 8.2799 101.15 7.6639V6.0559H104.882V10.2559H108.59V13.1359H104.882V17.7199C104.882 17.8639 104.882 18.0039 104.882 18.1399C104.882 18.2759 104.882 18.4079 104.882 18.5359C104.882 19.0879 104.946 19.5359 105.074 19.8799C105.21 20.2239 105.542 20.3959 106.07 20.3959C106.334 20.3959 106.582 20.3719 106.814 20.3239C107.054 20.2759 107.234 20.2279 107.354 20.1799V22.9759C107.186 23.0479 106.95 23.1119 106.646 23.1679C106.342 23.2319 105.986 23.2639 105.578 23.2639ZM115.868 23.2879C114.804 23.2879 113.824 23.0359 112.928 22.5319C112.032 22.0199 111.312 21.2639 110.768 20.2639C110.224 19.2639 109.952 18.0319 109.952 16.5679C109.952 15.1679 110.228 13.9799 110.78 13.0039C111.34 12.0279 112.068 11.2879 112.964 10.7839C113.868 10.2719 114.836 10.0159 115.868 10.0159C116.876 10.0159 117.796 10.2719 118.628 10.7839C119.468 11.2959 120.14 11.9959 120.644 12.8839C121.148 13.7639 121.4 14.7799 121.4 15.9319C121.4 15.9719 121.4 16.0119 121.4 16.0519C121.4 16.0839 121.4 16.1199 121.4 16.1599L119.792 16.1839C119.792 16.1599 119.792 16.1359 119.792 16.1119C119.792 16.0799 119.792 16.0519 119.792 16.0279C119.792 15.4279 119.648 14.9119 119.36 14.4799C119.072 14.0479 118.7 13.7159 118.244 13.4839C117.788 13.2439 117.312 13.1239 116.816 13.1239C115.992 13.1239 115.28 13.3999 114.68 13.9519C114.08 14.4959 113.78 15.3679 113.78 16.5679C113.78 17.7679 114.08 18.6519 114.68 19.2199C115.288 19.7799 116 20.0599 116.816 20.0599C117.328 20.0599 117.812 19.9399 118.268 19.6999C118.724 19.4519 119.092 19.1039 119.372 18.6559C119.652 18.2079 119.792 17.6799 119.792 17.0719L121.4 17.1559C121.4 18.2999 121.152 19.3359 120.656 20.2639C120.168 21.1839 119.504 21.9199 118.664 22.4719C117.832 23.0159 116.9 23.2879 115.868 23.2879ZM119.792 22.9999V4.2439H123.524V22.9999H119.792ZM132.745 23.2759C131.369 23.2759 130.157 22.9919 129.109 22.4239C128.061 21.8559 127.241 21.0759 126.649 20.0839C126.065 19.0839 125.773 17.9319 125.773 16.6279C125.773 15.3319 126.065 14.1879 126.649 13.1959C127.241 12.1959 128.061 11.4199 129.109 10.8679C130.157 10.3079 131.369 10.0279 132.745 10.0279C134.121 10.0279 135.333 10.3079 136.381 10.8679C137.429 11.4199 138.245 12.1959 138.829 13.1959C139.421 14.1879 139.717 15.3319 139.717 16.6279C139.717 17.9319 139.421 19.0839 138.829 20.0839C138.245 21.0759 137.429 21.8559 136.381 22.4239C135.333 22.9919 134.121 23.2759 132.745 23.2759ZM132.745 20.3239C133.393 20.3239 133.957 20.1719 134.437 19.8679C134.917 19.5639 135.289 19.1359 135.553 18.5839C135.817 18.0239 135.949 17.3719 135.949 16.6279C135.949 15.8839 135.817 15.2399 135.553 14.6959C135.289 14.1439 134.917 13.7199 134.437 13.4239C133.957 13.1279 133.393 12.9799 132.745 12.9799C132.105 12.9799 131.541 13.1279 131.053 13.4239C130.573 13.7199 130.201 14.1439 129.937 14.6959C129.673 15.2399 129.541 15.8839 129.541 16.6279C129.541 17.3719 129.673 18.0239 129.937 18.5839C130.201 19.1359 130.573 19.5639 131.053 19.8679C131.541 20.1719 132.105 20.3239 132.745 20.3239ZM148.211 23.2639C147.723 23.2639 147.219 23.2199 146.699 23.1319C146.187 23.0519 145.707 22.8879 145.259 22.6399C144.819 22.3839 144.463 22.0119 144.191 21.5239C143.919 21.0359 143.783 20.3919 143.783 19.5919C143.783 19.4159 143.783 19.2359 143.783 19.0519C143.783 18.8679 143.783 18.6839 143.783 18.4999V13.1359H140.843V10.2559H141.671C142.151 10.2559 142.531 10.2359 142.811 10.1959C143.099 10.1559 143.311 10.0559 143.447 9.8959C143.591 9.7279 143.683 9.4679 143.723 9.1159C143.763 8.7639 143.783 8.2799 143.783 7.6639V6.0559H147.515V10.2559H151.223V13.1359H147.515V17.7199C147.515 17.8639 147.515 18.0039 147.515 18.1399C147.515 18.2759 147.515 18.4079 147.515 18.5359C147.515 19.0879 147.579 19.5359 147.707 19.8799C147.843 20.2239 148.175 20.3959 148.703 20.3959C148.967 20.3959 149.215 20.3719 149.447 20.3239C149.687 20.2759 149.867 20.2279 149.987 20.1799V22.9759C149.819 23.0479 149.583 23.1119 149.279 23.1679C148.975 23.2319 148.619 23.2639 148.211 23.2639Z" fill="#1A202C"/>
</g>
</g>
<defs>
<clipPath id="clip0_12_1654">
<rect width="176" height="32" fill="white" transform="translate(0.349976)"/>
</clipPath>
<clipPath id="clip1_12_1654">
<rect width="176" height="32" fill="white" transform="translate(0.349976)"/>
</clipPath>
</defs>
</svg>
