<svg width="176" height="32" viewBox="0 0 176 32" fill="none" xmlns="http://www.w3.org/2000/svg">
<g clip-path="url(#clip0_2001_48)">
<g clip-path="url(#clip1_2001_48)">
<path d="M33 0C41.8366 0 49 7.16344 49 16C49 24.8366 41.8366 32 33 32C24.1634 32 17 24.8366 17 16C17 7.16344 24.1634 0 33 0ZM36.1113 9.77734C30.9567 9.77734 26.7773 13.9567 26.7773 19.1113C26.7775 24.2659 30.9567 28.4443 36.1113 28.4443C41.2658 28.4442 45.4442 24.2658 45.4443 19.1113C45.4443 13.9567 41.2659 9.77746 36.1113 9.77734Z" fill="#20479E"/>
<path d="M64.887 7.24808C66.647 7.24808 68.191 7.59208 69.519 8.28008C70.863 8.96808 71.895 9.95208 72.615 11.2321C73.351 12.4961 73.719 13.9681 73.719 15.6481C73.719 17.3281 73.351 18.8001 72.615 20.0641C71.895 21.3121 70.863 22.2801 69.519 22.9681C68.191 23.6561 66.647 24.0001 64.887 24.0001H59.031V7.24808H64.887ZM64.767 21.1441C66.527 21.1441 67.887 20.6641 68.847 19.7041C69.807 18.7441 70.287 17.3921 70.287 15.6481C70.287 13.9041 69.807 12.5441 68.847 11.5681C67.887 10.5761 66.527 10.0801 64.767 10.0801H62.391V21.1441H64.767ZM77.9381 9.12008C77.3461 9.12008 76.8501 8.93608 76.4501 8.56808C76.0661 8.18408 75.8741 7.71208 75.8741 7.15208C75.8741 6.59208 76.0661 6.12808 76.4501 5.76008C76.8501 5.37608 77.3461 5.18408 77.9381 5.18408C78.5301 5.18408 79.0181 5.37608 79.4021 5.76008C79.8021 6.12808 80.0021 6.59208 80.0021 7.15208C80.0021 7.71208 79.8021 8.18408 79.4021 8.56808C79.0181 8.93608 78.5301 9.12008 77.9381 9.12008ZM79.5941 10.7041V24.0001H76.2341V10.7041H79.5941ZM88.1218 10.4881C89.1138 10.4881 89.9858 10.6881 90.7378 11.0881C91.4898 11.4721 92.0818 11.9761 92.5138 12.6001V10.7041H95.8978V24.0961C95.8978 25.3281 95.6498 26.4241 95.1538 27.3841C94.6578 28.3601 93.9138 29.1281 92.9218 29.6881C91.9298 30.2641 90.7298 30.5521 89.3218 30.5521C87.4338 30.5521 85.8818 30.1121 84.6658 29.2321C83.4658 28.3521 82.7858 27.1521 82.6258 25.6321H85.9618C86.1378 26.2401 86.5138 26.7201 87.0898 27.0721C87.6818 27.4401 88.3938 27.6241 89.2258 27.6241C90.2018 27.6241 90.9938 27.3281 91.6018 26.7361C92.2098 26.1601 92.5138 25.2801 92.5138 24.0961V22.0321C92.0818 22.6561 91.4818 23.1761 90.7138 23.5921C89.9618 24.0081 89.0978 24.2161 88.1218 24.2161C87.0018 24.2161 85.9778 23.9281 85.0498 23.3521C84.1218 22.7761 83.3858 21.9681 82.8418 20.9281C82.3138 19.8721 82.0498 18.6641 82.0498 17.3041C82.0498 15.9601 82.3138 14.7681 82.8418 13.7281C83.3858 12.6881 84.1138 11.8881 85.0258 11.3281C85.9538 10.7681 86.9858 10.4881 88.1218 10.4881ZM92.5138 17.3521C92.5138 16.5361 92.3538 15.8401 92.0338 15.2641C91.7138 14.6721 91.2818 14.2241 90.7378 13.9201C90.1938 13.6001 89.6098 13.4401 88.9858 13.4401C88.3618 13.4401 87.7858 13.5921 87.2578 13.8961C86.7298 14.2001 86.2978 14.6481 85.9618 15.2401C85.6418 15.8161 85.4818 16.5041 85.4818 17.3041C85.4818 18.1041 85.6418 18.8081 85.9618 19.4161C86.2978 20.0081 86.7298 20.4641 87.2578 20.7841C87.8018 21.1041 88.3778 21.2641 88.9858 21.2641C89.6098 21.2641 90.1938 21.1121 90.7378 20.8081C91.2818 20.4881 91.7138 20.0401 92.0338 19.4641C92.3538 18.8721 92.5138 18.1681 92.5138 17.3521ZM100.883 9.12008C100.291 9.12008 99.7954 8.93608 99.3954 8.56808C99.0114 8.18408 98.8194 7.71208 98.8194 7.15208C98.8194 6.59208 99.0114 6.12808 99.3954 5.76008C99.7954 5.37608 100.291 5.18408 100.883 5.18408C101.475 5.18408 101.963 5.37608 102.347 5.76008C102.747 6.12808 102.947 6.59208 102.947 7.15208C102.947 7.71208 102.747 8.18408 102.347 8.56808C101.963 8.93608 101.475 9.12008 100.883 9.12008ZM102.539 10.7041V24.0001H99.1794V10.7041H102.539ZM109.771 13.4641V19.8961C109.771 20.3441 109.875 20.6721 110.083 20.8801C110.307 21.0721 110.675 21.1681 111.187 21.1681H112.747V24.0001H110.635C107.803 24.0001 106.387 22.6241 106.387 19.8721V13.4641H104.803V10.7041H106.387V7.41608H109.771V10.7041H112.747V13.4641H109.771ZM127.524 17.0641C127.524 17.5441 127.492 17.9761 127.428 18.3601H117.708C117.788 19.3201 118.124 20.0721 118.716 20.6161C119.308 21.1601 120.036 21.4321 120.9 21.4321C122.148 21.4321 123.036 20.8961 123.564 19.8241H127.188C126.804 21.1041 126.068 22.1601 124.98 22.9921C123.892 23.8081 122.556 24.2161 120.972 24.2161C119.692 24.2161 118.54 23.9361 117.516 23.3761C116.508 22.8001 115.716 21.9921 115.14 20.9521C114.58 19.9121 114.3 18.7121 114.3 17.3521C114.3 15.9761 114.58 14.7681 115.14 13.7281C115.7 12.6881 116.484 11.8881 117.492 11.3281C118.5 10.7681 119.66 10.4881 120.972 10.4881C122.236 10.4881 123.364 10.7601 124.356 11.3041C125.364 11.8481 126.14 12.6241 126.684 13.6321C127.244 14.6241 127.524 15.7681 127.524 17.0641ZM124.044 16.1041C124.028 15.2401 123.716 14.5521 123.108 14.0401C122.5 13.5121 121.756 13.2481 120.876 13.2481C120.044 13.2481 119.34 13.5041 118.764 14.0161C118.204 14.5121 117.86 15.2081 117.732 16.1041H124.044ZM129.112 17.3521C129.112 15.9761 129.392 14.7761 129.952 13.7521C130.512 12.7121 131.288 11.9121 132.28 11.3521C133.272 10.7761 134.408 10.4881 135.688 10.4881C137.336 10.4881 138.696 10.9041 139.768 11.7361C140.856 12.5521 141.584 13.7041 141.952 15.1921H138.328C138.136 14.6161 137.808 14.1681 137.344 13.8481C136.896 13.5121 136.336 13.3441 135.664 13.3441C134.704 13.3441 133.944 13.6961 133.384 14.4001C132.824 15.0881 132.544 16.0721 132.544 17.3521C132.544 18.6161 132.824 19.6001 133.384 20.3041C133.944 20.9921 134.704 21.3361 135.664 21.3361C137.024 21.3361 137.912 20.7281 138.328 19.5121H141.952C141.584 20.9521 140.856 22.0961 139.768 22.9441C138.68 23.7921 137.32 24.2161 135.688 24.2161C134.408 24.2161 133.272 23.9361 132.28 23.3761C131.288 22.8001 130.512 22.0001 129.952 20.9761C129.392 19.9361 129.112 18.7281 129.112 17.3521ZM151.902 10.5121C152.91 10.5121 153.806 10.7361 154.59 11.1841C155.374 11.6161 155.982 12.2641 156.414 13.1281C156.862 13.9761 157.086 15.0001 157.086 16.2001V24.0001H153.726V16.6561C153.726 15.6001 153.462 14.7921 152.934 14.2321C152.406 13.6561 151.686 13.3681 150.774 13.3681C149.846 13.3681 149.11 13.6561 148.566 14.2321C148.038 14.7921 147.774 15.6001 147.774 16.6561V24.0001H144.414V6.24008H147.774V12.3601C148.206 11.7841 148.782 11.3361 149.502 11.0161C150.222 10.6801 151.022 10.5121 151.902 10.5121Z" fill="#1A202C"/>
</g>
</g>
<defs>
<clipPath id="clip0_2001_48">
<rect width="176" height="32" fill="white"/>
</clipPath>
<clipPath id="clip1_2001_48">
<rect width="176" height="32" fill="white"/>
</clipPath>
</defs>
</svg>
