<svg width="177" height="32" viewBox="0 0 177 32" fill="none" xmlns="http://www.w3.org/2000/svg">
<g clip-path="url(#clip0_12_1632)">
<g clip-path="url(#clip1_12_1632)">
<path d="M21.3354 2C17.4775 2 14.35 5.12753 14.35 8.98535C14.3501 12.8431 17.4776 15.9707 21.3354 15.9707H28.351V2H21.3354Z" stroke="#A855F7" stroke-width="4"/>
<path d="M21.3354 30C17.4775 30 14.35 26.8725 14.35 23.0146C14.3501 19.1569 17.4776 16.0293 21.3354 16.0293H28.351V30H21.3354Z" stroke="#A855F7" stroke-width="4"/>
<path d="M35.3646 2C39.2225 2 42.35 5.12753 42.35 8.98535C42.3499 12.8431 39.2224 15.9707 35.3646 15.9707H28.349V2H35.3646Z" stroke="#7C3AED" stroke-width="4"/>
<path d="M35.3646 30C39.2225 30 42.35 26.8725 42.35 23.0146C42.3499 19.1569 39.2224 16.0293 35.3646 16.0293H28.349V30H35.3646Z" stroke="#7C3AED" stroke-width="4"/>
<path d="M63.9224 17.24C63.8264 17.288 63.8264 17.336 63.9224 17.384C65.4424 18.168 66.2024 19.472 66.2024 21.296C66.2024 22.848 65.6744 24.024 64.6184 24.824C63.5624 25.608 62.1784 26 60.4664 26H54.2504C54.1704 26 54.0984 25.976 54.0344 25.928C53.9864 25.864 53.9624 25.792 53.9624 25.712V9.48795C53.9624 9.40795 53.9864 9.34395 54.0344 9.29595C54.0984 9.23195 54.1704 9.19995 54.2504 9.19995H60.2744C64.0664 9.19995 65.9624 10.736 65.9624 13.808C65.9624 15.408 65.2824 16.552 63.9224 17.24ZM57.4664 12.104C57.3864 12.104 57.3464 12.144 57.3464 12.224V15.968C57.3464 16.048 57.3864 16.088 57.4664 16.088H60.2744C61.0264 16.088 61.6104 15.912 62.0264 15.56C62.4424 15.208 62.6504 14.728 62.6504 14.12C62.6504 13.496 62.4424 13.008 62.0264 12.656C61.6104 12.288 61.0264 12.104 60.2744 12.104H57.4664ZM60.4664 23.072C61.2024 23.072 61.7784 22.888 62.1944 22.52C62.6104 22.136 62.8184 21.616 62.8184 20.96C62.8184 20.304 62.6104 19.792 62.1944 19.424C61.7784 19.04 61.1944 18.848 60.4424 18.848H57.4664C57.3864 18.848 57.3464 18.888 57.3464 18.968V22.952C57.3464 23.032 57.3864 23.072 57.4664 23.072H60.4664ZM68.4869 30.776C68.4389 30.776 68.3989 30.7439 68.3669 30.68C68.3349 30.632 68.3189 30.568 68.3189 30.488V28.28C68.3189 28.2 68.3429 28.1279 68.3909 28.0639C68.4549 28.0159 68.5269 27.992 68.6069 27.992C69.2789 27.976 69.8069 27.92 70.1909 27.824C70.5909 27.728 70.9029 27.5439 71.1269 27.2719C71.3669 27 71.5509 26.6 71.6789 26.072C71.6949 26.04 71.6949 25.992 71.6789 25.928L67.7429 13.976C67.7269 13.944 67.7189 13.904 67.7189 13.856C67.7189 13.712 67.8069 13.64 67.9829 13.64H70.9829C71.1589 13.64 71.2709 13.72 71.3189 13.88L73.3349 21.656C73.3509 21.704 73.3749 21.728 73.4069 21.728C73.4389 21.728 73.4629 21.704 73.4789 21.656L75.4949 13.88C75.5429 13.72 75.6549 13.64 75.8309 13.64H78.7589C78.8549 13.64 78.9189 13.672 78.9509 13.736C78.9989 13.784 79.0069 13.864 78.9749 13.976L74.8229 26.456C74.4229 27.624 74.0149 28.496 73.5989 29.072C73.1829 29.664 72.5989 30.096 71.8469 30.368C71.0949 30.6399 70.0309 30.776 68.6549 30.776H68.4869ZM87.7327 16.088C87.7327 16.168 87.7007 16.24 87.6367 16.304C87.5887 16.352 87.5247 16.376 87.4447 16.376H85.1407C85.0607 16.376 85.0207 16.416 85.0207 16.496V21.584C85.0207 22.112 85.1247 22.504 85.3327 22.76C85.5567 23.016 85.9087 23.144 86.3887 23.144H87.1807C87.2607 23.144 87.3247 23.176 87.3727 23.24C87.4367 23.288 87.4687 23.352 87.4687 23.432V25.712C87.4687 25.888 87.3727 25.992 87.1807 26.024C86.5087 26.056 86.0287 26.072 85.7407 26.072C84.4127 26.072 83.4207 25.8559 82.7647 25.424C82.1087 24.976 81.7727 24.144 81.7567 22.928V16.496C81.7567 16.416 81.7167 16.376 81.6367 16.376H80.2687C80.1887 16.376 80.1167 16.352 80.0527 16.304C80.0047 16.24 79.9807 16.168 79.9807 16.088V13.952C79.9807 13.872 80.0047 13.808 80.0527 13.76C80.1167 13.696 80.1887 13.664 80.2687 13.664H81.6367C81.7167 13.664 81.7567 13.624 81.7567 13.544V10.688C81.7567 10.608 81.7807 10.544 81.8287 10.496C81.8927 10.432 81.9647 10.4 82.0447 10.4H84.7327C84.8127 10.4 84.8767 10.432 84.9247 10.496C84.9887 10.544 85.0207 10.608 85.0207 10.688V13.544C85.0207 13.624 85.0607 13.664 85.1407 13.664H87.4447C87.5247 13.664 87.5887 13.696 87.6367 13.76C87.7007 13.808 87.7327 13.872 87.7327 13.952V16.088ZM100.526 18.56C100.622 19.168 100.654 19.848 100.622 20.6C100.606 20.792 100.502 20.888 100.31 20.888H92.8938C92.7978 20.888 92.7658 20.928 92.7978 21.008C92.8458 21.328 92.9338 21.648 93.0618 21.968C93.4778 22.864 94.3258 23.312 95.6058 23.312C96.6298 23.296 97.4378 22.88 98.0298 22.064C98.0938 21.968 98.1658 21.92 98.2458 21.92C98.2938 21.92 98.3498 21.952 98.4138 22.016L100.142 23.72C100.222 23.8 100.262 23.872 100.262 23.936C100.262 23.968 100.23 24.032 100.166 24.128C99.6378 24.784 98.9578 25.296 98.1258 25.664C97.2938 26.016 96.3818 26.192 95.3898 26.192C94.0138 26.192 92.8458 25.88 91.8858 25.256C90.9418 24.632 90.2618 23.76 89.8458 22.64C89.5098 21.84 89.3418 20.792 89.3418 19.496C89.3418 18.616 89.4618 17.84 89.7018 17.168C90.0698 16.032 90.7098 15.128 91.6218 14.456C92.5498 13.784 93.6458 13.448 94.9098 13.448C96.5098 13.448 97.7898 13.912 98.7498 14.84C99.7258 15.768 100.318 17.008 100.526 18.56ZM94.9338 16.376C93.9258 16.376 93.2618 16.848 92.9418 17.792C92.8778 18 92.8218 18.256 92.7738 18.56C92.7738 18.64 92.8138 18.68 92.8938 18.68H97.0458C97.1418 18.68 97.1738 18.64 97.1418 18.56C97.0618 18.096 97.0218 17.872 97.0218 17.888C96.8778 17.408 96.6218 17.04 96.2538 16.784C95.9018 16.512 95.4618 16.376 94.9338 16.376ZM112.883 17.24C112.787 17.288 112.787 17.336 112.883 17.384C114.403 18.168 115.163 19.472 115.163 21.296C115.163 22.848 114.635 24.024 113.579 24.824C112.523 25.608 111.139 26 109.427 26H103.211C103.131 26 103.059 25.976 102.995 25.928C102.947 25.864 102.923 25.792 102.923 25.712V9.48795C102.923 9.40795 102.947 9.34395 102.995 9.29595C103.059 9.23195 103.131 9.19995 103.211 9.19995H109.235C113.027 9.19995 114.923 10.736 114.923 13.808C114.923 15.408 114.243 16.552 112.883 17.24ZM106.427 12.104C106.347 12.104 106.307 12.144 106.307 12.224V15.968C106.307 16.048 106.347 16.088 106.427 16.088H109.235C109.987 16.088 110.571 15.912 110.987 15.56C111.403 15.208 111.611 14.728 111.611 14.12C111.611 13.496 111.403 13.008 110.987 12.656C110.571 12.288 109.987 12.104 109.235 12.104H106.427ZM109.427 23.072C110.163 23.072 110.739 22.888 111.155 22.52C111.571 22.136 111.779 21.616 111.779 20.96C111.779 20.304 111.571 19.792 111.155 19.424C110.739 19.04 110.155 18.848 109.403 18.848H106.427C106.347 18.848 106.307 18.888 106.307 18.968V22.952C106.307 23.032 106.347 23.072 106.427 23.072H109.427ZM123.038 26.192C121.694 26.192 120.542 25.84 119.582 25.136C118.622 24.432 117.966 23.472 117.614 22.256C117.39 21.504 117.278 20.688 117.278 19.808C117.278 18.864 117.39 18.016 117.614 17.264C117.982 16.08 118.646 15.152 119.606 14.48C120.566 13.808 121.718 13.472 123.062 13.472C124.374 13.472 125.494 13.808 126.422 14.48C127.35 15.136 128.006 16.056 128.39 17.24C128.646 18.04 128.774 18.88 128.774 19.76C128.774 20.624 128.662 21.432 128.438 22.184C128.086 23.432 127.43 24.416 126.47 25.136C125.526 25.84 124.382 26.192 123.038 26.192ZM123.038 23.288C123.566 23.288 124.014 23.128 124.382 22.808C124.75 22.488 125.014 22.048 125.174 21.488C125.302 20.976 125.366 20.416 125.366 19.808C125.366 19.136 125.302 18.568 125.174 18.104C124.998 17.56 124.726 17.136 124.358 16.832C123.99 16.528 123.542 16.376 123.014 16.376C122.47 16.376 122.014 16.528 121.646 16.832C121.294 17.136 121.038 17.56 120.878 18.104C120.75 18.488 120.686 19.056 120.686 19.808C120.686 20.528 120.742 21.088 120.854 21.488C121.014 22.048 121.278 22.488 121.646 22.808C122.03 23.128 122.494 23.288 123.038 23.288ZM136.398 26.192C135.054 26.192 133.902 25.84 132.942 25.136C131.982 24.432 131.326 23.472 130.974 22.256C130.75 21.504 130.638 20.688 130.638 19.808C130.638 18.864 130.75 18.016 130.974 17.264C131.342 16.08 132.006 15.152 132.966 14.48C133.926 13.808 135.078 13.472 136.422 13.472C137.734 13.472 138.854 13.808 139.782 14.48C140.71 15.136 141.366 16.056 141.75 17.24C142.006 18.04 142.134 18.88 142.134 19.76C142.134 20.624 142.022 21.432 141.798 22.184C141.446 23.432 140.79 24.416 139.83 25.136C138.886 25.84 137.742 26.192 136.398 26.192ZM136.398 23.288C136.926 23.288 137.374 23.128 137.742 22.808C138.11 22.488 138.374 22.048 138.534 21.488C138.662 20.976 138.726 20.416 138.726 19.808C138.726 19.136 138.662 18.568 138.534 18.104C138.358 17.56 138.086 17.136 137.718 16.832C137.35 16.528 136.902 16.376 136.374 16.376C135.83 16.376 135.374 16.528 135.006 16.832C134.654 17.136 134.398 17.56 134.238 18.104C134.11 18.488 134.046 19.056 134.046 19.808C134.046 20.528 134.102 21.088 134.214 21.488C134.374 22.048 134.638 22.488 135.006 22.808C135.39 23.128 135.854 23.288 136.398 23.288ZM149.229 26.1679C148.157 26.1679 147.221 26.016 146.421 25.712C145.621 25.408 144.997 24.984 144.549 24.44C144.117 23.896 143.901 23.28 143.901 22.592V22.352C143.901 22.272 143.925 22.208 143.973 22.16C144.037 22.096 144.109 22.064 144.189 22.064H146.853C146.933 22.064 146.997 22.096 147.045 22.16C147.109 22.208 147.141 22.272 147.141 22.352V22.376C147.141 22.728 147.333 23.032 147.717 23.288C148.117 23.528 148.613 23.648 149.205 23.648C149.749 23.648 150.189 23.544 150.525 23.336C150.861 23.112 151.029 22.84 151.029 22.52C151.029 22.232 150.885 22.016 150.597 21.872C150.309 21.728 149.837 21.576 149.181 21.416C148.429 21.224 147.837 21.04 147.405 20.864C146.381 20.512 145.565 20.08 144.957 19.568C144.349 19.056 144.045 18.32 144.045 17.36C144.045 16.176 144.501 15.24 145.413 14.552C146.341 13.848 147.565 13.496 149.085 13.496C150.109 13.496 151.005 13.664 151.773 14C152.541 14.32 153.133 14.776 153.549 15.368C153.981 15.96 154.197 16.632 154.197 17.384C154.197 17.464 154.165 17.536 154.101 17.6C154.053 17.648 153.989 17.672 153.909 17.672H151.341C151.261 17.672 151.189 17.648 151.125 17.6C151.077 17.536 151.053 17.464 151.053 17.384C151.053 17.032 150.869 16.736 150.501 16.496C150.149 16.256 149.677 16.136 149.085 16.136C148.557 16.136 148.125 16.232 147.789 16.424C147.453 16.616 147.285 16.88 147.285 17.216C147.285 17.536 147.445 17.776 147.765 17.936C148.101 18.096 148.653 18.264 149.421 18.44C149.597 18.488 149.797 18.544 150.021 18.608C150.245 18.656 150.485 18.72 150.741 18.8C151.877 19.136 152.773 19.568 153.429 20.096C154.085 20.624 154.413 21.392 154.413 22.4C154.413 23.584 153.941 24.512 152.997 25.184C152.069 25.84 150.813 26.1679 149.229 26.1679ZM163.412 16.088C163.412 16.168 163.38 16.24 163.316 16.304C163.268 16.352 163.204 16.376 163.124 16.376H160.82C160.74 16.376 160.7 16.416 160.7 16.496V21.584C160.7 22.112 160.804 22.504 161.012 22.76C161.236 23.016 161.588 23.144 162.068 23.144H162.86C162.94 23.144 163.004 23.176 163.052 23.24C163.116 23.288 163.148 23.352 163.148 23.432V25.712C163.148 25.888 163.052 25.992 162.86 26.024C162.188 26.056 161.708 26.072 161.42 26.072C160.092 26.072 159.1 25.8559 158.444 25.424C157.788 24.976 157.452 24.144 157.436 22.928V16.496C157.436 16.416 157.396 16.376 157.316 16.376H155.948C155.868 16.376 155.796 16.352 155.732 16.304C155.684 16.24 155.66 16.168 155.66 16.088V13.952C155.66 13.872 155.684 13.808 155.732 13.76C155.796 13.696 155.868 13.664 155.948 13.664H157.316C157.396 13.664 157.436 13.624 157.436 13.544V10.688C157.436 10.608 157.46 10.544 157.508 10.496C157.572 10.432 157.644 10.4 157.724 10.4H160.412C160.492 10.4 160.556 10.432 160.604 10.496C160.668 10.544 160.7 10.608 160.7 10.688V13.544C160.7 13.624 160.74 13.664 160.82 13.664H163.124C163.204 13.664 163.268 13.696 163.316 13.76C163.38 13.808 163.412 13.872 163.412 13.952V16.088Z" fill="#1A202C"/>
</g>
</g>
<defs>
<clipPath id="clip0_12_1632">
<rect width="176" height="32" fill="white" transform="translate(0.350006)"/>
</clipPath>
<clipPath id="clip1_12_1632">
<rect width="176" height="32" fill="white" transform="translate(0.350006)"/>
</clipPath>
</defs>
</svg>
