<svg width="75" height="16" viewBox="0 0 75 16" fill="none" xmlns="http://www.w3.org/2000/svg">
<g clip-path="url(#clip0_12_1310)">
<path d="M7.5 11.3838L11.3625 13.7151L10.3375 9.32134L13.75 6.36509L9.25625 5.98384L7.5 1.84009L5.74375 5.98384L1.25 6.36509L4.6625 9.32134L3.6375 13.7151L7.5 11.3838Z" fill="#F3E063"/>
<path d="M22.5 11.3838L26.3625 13.7151L25.3375 9.32134L28.75 6.36509L24.2563 5.98384L22.5 1.84009L20.7437 5.98384L16.25 6.36509L19.6625 9.32134L18.6375 13.7151L22.5 11.3838Z" fill="#F3E063"/>
<path d="M37.5 11.3838L41.3625 13.7151L40.3375 9.32134L43.75 6.36509L39.2563 5.98384L37.5 1.84009L35.7437 5.98384L31.25 6.36509L34.6625 9.32134L33.6375 13.7151L37.5 11.3838Z" fill="#F3E063"/>
<path d="M52.5 11.3838L56.3625 13.7151L55.3375 9.32134L58.75 6.36509L54.2563 5.98384L52.5 1.84009L50.7437 5.98384L46.25 6.36509L49.6625 9.32134L48.6375 13.7151L52.5 11.3838Z" fill="#F3E063"/>
<path d="M67.5 11.3838L71.3625 13.7151L70.3375 9.32134L73.75 6.36509L69.2563 5.98384L67.5 1.84009L65.7437 5.98384L61.25 6.36509L64.6625 9.32134L63.6375 13.7151L67.5 11.3838Z" fill="#F3E063"/>
</g>
<defs>
<clipPath id="clip0_12_1310">
<rect width="75" height="15" fill="white" transform="translate(0 0.590088)"/>
</clipPath>
</defs>
</svg>
