<svg width="64" height="64" viewBox="0 0 64 64" fill="none" xmlns="http://www.w3.org/2000/svg">
<circle cx="32" cy="32" r="31.5" stroke="#EEF2FF"/>
<circle cx="32" cy="32" r="28" fill="#EEF2FF"/>
<rect x="33.6499" y="25" width="2" height="10" fill="#20479E"/>
<rect x="22" y="32" width="2" height="10" fill="#20479E"/>
<rect x="39" y="25" width="2" height="10" fill="#20479E"/>
<path d="M22.6667 26.6665C20.4533 26.6665 18.6667 28.4532 18.6667 30.6665V41.3332C18.6667 43.5465 20.4533 45.3332 22.6667 45.3332H24.6667C26.1333 45.3332 27.3333 44.1332 27.3333 42.6665V29.3332C27.3333 27.8665 26.1333 26.6665 24.6667 26.6665H22.6667ZM24 38.6665C24 39.2132 23.5467 39.6665 23 39.6665C22.4533 39.6665 22 39.2132 22 38.6665V33.3332C22 32.7865 22.4533 32.3332 23 32.3332C23.5467 32.3332 24 32.7865 24 33.3332V38.6665Z" fill="white"/>
<path d="M41.3333 18.6665H33.3333C31.12 18.6665 29.3333 20.4532 29.3333 22.6665V41.3332C29.3333 43.5465 31.12 45.3332 33.3333 45.3332H34C34.3733 45.3332 34.6667 45.0398 34.6667 44.6665V39.9998C34.6667 39.2665 35.2667 38.6665 36 38.6665H38.6667C39.4 38.6665 40 39.2665 40 39.9998V44.6665C40 45.0398 40.2933 45.3332 40.6667 45.3332H41.3333C43.5467 45.3332 45.3333 43.5465 45.3333 41.3332V22.6665C45.3333 20.4532 43.5467 18.6665 41.3333 18.6665ZM35.6667 33.3332C35.6667 33.8798 35.2133 34.3332 34.6667 34.3332C34.12 34.3332 33.6667 33.8798 33.6667 33.3332V26.6665C33.6667 26.1198 34.12 25.6665 34.6667 25.6665C35.2133 25.6665 35.6667 26.1198 35.6667 26.6665V33.3332ZM41 33.3332C41 33.8798 40.5467 34.3332 40 34.3332C39.4533 34.3332 39 33.8798 39 33.3332V26.6665C39 26.1198 39.4533 25.6665 40 25.6665C40.5467 25.6665 41 26.1198 41 26.6665V33.3332Z" fill="white"/>
<rect x="40" y="40" width="24" height="24" rx="12" fill="#20479E"/>
<path d="M51.6667 58.0002C55.1645 58.0002 58 55.1646 58 51.6668C58 48.169 55.1645 45.3335 51.6667 45.3335C48.1689 45.3335 45.3333 48.169 45.3333 51.6668C45.3333 55.1646 48.1689 58.0002 51.6667 58.0002Z" stroke="white" stroke-width="2" stroke-linecap="round" stroke-linejoin="round"/>
<path d="M58.6667 58.6668L57.3333 57.3335" stroke="white" stroke-width="2" stroke-linecap="round" stroke-linejoin="round"/>
</svg>
