<svg width="177" height="32" viewBox="0 0 177 32" fill="none" xmlns="http://www.w3.org/2000/svg">
<g clip-path="url(#clip0_12_1640)">
<g clip-path="url(#clip1_12_1640)">
<path d="M50.5299 6.1869C51.3626 3.79482 50.183 1.14987 47.8953 0.279223C45.6076 -0.59142 43.078 0.641943 42.2453 3.03402L34.316 25.8131C33.4834 28.2052 34.6629 30.8501 36.9507 31.7208C39.2384 32.5914 41.768 31.358 42.6007 28.966L50.5299 6.1869Z" fill="#818CF8"/>
<path d="M13.1698 6.1869C12.3371 3.79483 13.5167 1.14987 15.8044 0.279223C18.0922 -0.591421 20.6217 0.641942 21.4544 3.03402L29.3837 25.8131C30.2164 28.2052 29.0368 30.8501 26.7491 31.7208C24.4613 32.5914 21.9317 31.3581 21.0991 28.966L13.1698 6.1869Z" fill="#20479E"/>
<path d="M26.399 6.1869C25.5664 3.79483 26.7459 1.14987 29.0337 0.279223C31.3214 -0.591421 33.851 0.641942 34.6837 3.03402L42.6129 25.8131C43.4456 28.2052 42.266 30.8501 39.9783 31.7208C37.6906 32.5914 35.161 31.3581 34.3283 28.966L26.399 6.1869Z" fill="#20479E"/>
<path d="M67.0934 24.216C66.5814 24.216 66.1654 24.096 65.8454 23.856C65.5254 23.6 65.2694 23.216 65.0774 22.704L60.2294 9.07201C60.0214 8.46401 60.0614 7.94401 60.3494 7.51201C60.6534 7.08001 61.1734 6.86401 61.9094 6.86401C62.4214 6.86401 62.8134 6.98401 63.0854 7.22401C63.3734 7.46401 63.6054 7.84001 63.7814 8.35201L67.7414 20.136H66.7094L70.8854 8.37601C71.0774 7.86401 71.3094 7.48801 71.5814 7.24801C71.8694 6.99201 72.2454 6.86401 72.7094 6.86401C73.1574 6.86401 73.5174 6.99201 73.7894 7.24801C74.0614 7.48801 74.2934 7.87201 74.4854 8.40001L78.4694 20.136H77.5814L81.6134 8.35201C81.7734 7.85601 81.9974 7.48801 82.2854 7.24801C82.5734 6.99201 82.9654 6.86401 83.4614 6.86401C84.0854 6.86401 84.5414 7.08001 84.8294 7.51201C85.1174 7.94401 85.1494 8.46401 84.9254 9.07201L80.0294 22.728C79.8534 23.224 79.6134 23.6 79.3094 23.856C79.0054 24.096 78.5894 24.216 78.0614 24.216C77.5494 24.216 77.1414 24.096 76.8374 23.856C76.5334 23.6 76.2854 23.216 76.0934 22.704L72.3014 11.976H72.8774L69.0374 22.728C68.8454 23.224 68.5974 23.6 68.2934 23.856C68.0054 24.096 67.6054 24.216 67.0934 24.216ZM91.9733 24.264C90.5813 24.264 89.3813 24.016 88.3733 23.52C87.3813 23.008 86.6133 22.296 86.0693 21.384C85.5413 20.456 85.2773 19.368 85.2773 18.12C85.2773 16.904 85.5333 15.84 86.0453 14.928C86.5573 14 87.2693 13.28 88.1813 12.768C89.1093 12.24 90.1573 11.976 91.3253 11.976C92.1733 11.976 92.9413 12.12 93.6293 12.408C94.3173 12.68 94.9093 13.08 95.4053 13.608C95.9013 14.12 96.2773 14.752 96.5333 15.504C96.7893 16.24 96.9173 17.064 96.9173 17.976C96.9173 18.28 96.8213 18.512 96.6293 18.672C96.4373 18.816 96.1573 18.888 95.7893 18.888H88.2533V17.016H94.3013L93.9173 17.352C93.9173 16.696 93.8213 16.152 93.6293 15.72C93.4373 15.272 93.1573 14.936 92.7893 14.712C92.4373 14.488 91.9973 14.376 91.4693 14.376C90.8773 14.376 90.3733 14.512 89.9573 14.784C89.5413 15.056 89.2213 15.448 88.9973 15.96C88.7733 16.472 88.6613 17.088 88.6613 17.808V18C88.6613 19.216 88.9413 20.112 89.5013 20.688C90.0773 21.264 90.9253 21.552 92.0453 21.552C92.4293 21.552 92.8693 21.504 93.3653 21.408C93.8613 21.312 94.3253 21.16 94.7573 20.952C95.1253 20.776 95.4533 20.72 95.7413 20.784C96.0293 20.832 96.2533 20.96 96.4133 21.168C96.5733 21.376 96.6613 21.616 96.6773 21.888C96.7093 22.16 96.6533 22.432 96.5093 22.704C96.3653 22.96 96.1253 23.176 95.7893 23.352C95.2453 23.656 94.6293 23.88 93.9413 24.024C93.2693 24.184 92.6133 24.264 91.9733 24.264ZM106.297 24.264C105.353 24.264 104.513 24.032 103.777 23.568C103.057 23.088 102.577 22.456 102.337 21.672L102.601 20.88V22.368C102.601 22.96 102.449 23.416 102.145 23.736C101.841 24.056 101.401 24.216 100.825 24.216C100.249 24.216 99.8012 24.056 99.4812 23.736C99.1772 23.416 99.0252 22.96 99.0252 22.368V8.71201C99.0252 8.10401 99.1772 7.64801 99.4812 7.34401C99.8012 7.02401 100.257 6.86401 100.849 6.86401C101.425 6.86401 101.865 7.02401 102.169 7.34401C102.489 7.64801 102.649 8.10401 102.649 8.71201V14.4H102.361C102.617 13.68 103.105 13.096 103.825 12.648C104.545 12.2 105.369 11.976 106.297 11.976C107.337 11.976 108.241 12.224 109.009 12.72C109.777 13.216 110.377 13.92 110.809 14.832C111.241 15.744 111.457 16.832 111.457 18.096C111.457 19.36 111.241 20.456 110.809 21.384C110.377 22.312 109.769 23.024 108.985 23.52C108.217 24.016 107.321 24.264 106.297 24.264ZM105.217 21.552C105.729 21.552 106.177 21.424 106.561 21.168C106.961 20.912 107.265 20.536 107.473 20.04C107.697 19.528 107.809 18.88 107.809 18.096C107.809 16.928 107.569 16.072 107.089 15.528C106.609 14.968 105.985 14.688 105.217 14.688C104.705 14.688 104.249 14.808 103.849 15.048C103.465 15.288 103.161 15.664 102.937 16.176C102.713 16.672 102.601 17.312 102.601 18.096C102.601 19.264 102.841 20.136 103.321 20.712C103.801 21.272 104.433 21.552 105.217 21.552ZM119.338 28.584C118.474 28.584 117.642 28.512 116.842 28.368C116.058 28.224 115.362 28.008 114.754 27.72C114.386 27.56 114.122 27.352 113.962 27.096C113.818 26.84 113.754 26.568 113.77 26.28C113.802 25.992 113.898 25.736 114.058 25.512C114.234 25.288 114.45 25.128 114.706 25.032C114.962 24.952 115.234 24.976 115.522 25.104C116.226 25.424 116.874 25.632 117.466 25.728C118.074 25.824 118.594 25.872 119.026 25.872C120.05 25.872 120.818 25.64 121.33 25.176C121.842 24.712 122.098 24 122.098 23.04V21.216H122.314C122.074 21.952 121.578 22.552 120.826 23.016C120.074 23.48 119.242 23.712 118.33 23.712C117.274 23.712 116.354 23.472 115.57 22.992C114.786 22.496 114.178 21.808 113.746 20.928C113.314 20.032 113.098 19 113.098 17.832C113.098 16.952 113.218 16.152 113.458 15.432C113.714 14.712 114.066 14.096 114.514 13.584C114.978 13.072 115.53 12.68 116.17 12.408C116.826 12.12 117.546 11.976 118.33 11.976C119.274 11.976 120.106 12.208 120.826 12.672C121.562 13.12 122.05 13.712 122.29 14.448L122.05 15.216V13.848C122.05 13.256 122.202 12.808 122.506 12.504C122.826 12.184 123.274 12.024 123.85 12.024C124.426 12.024 124.866 12.184 125.17 12.504C125.474 12.808 125.626 13.256 125.626 13.848V22.632C125.626 24.6 125.082 26.08 123.994 27.072C122.922 28.08 121.37 28.584 119.338 28.584ZM119.41 21C119.954 21 120.418 20.872 120.802 20.616C121.202 20.36 121.514 20 121.738 19.536C121.962 19.056 122.074 18.488 122.074 17.832C122.074 16.84 121.826 16.072 121.33 15.528C120.85 14.968 120.21 14.688 119.41 14.688C118.866 14.688 118.394 14.816 117.994 15.072C117.594 15.312 117.282 15.672 117.058 16.152C116.85 16.616 116.746 17.176 116.746 17.832C116.746 18.824 116.986 19.6 117.466 20.16C117.946 20.72 118.594 21 119.41 21ZM134.559 24.264C133.167 24.264 131.967 24.016 130.959 23.52C129.967 23.008 129.199 22.296 128.655 21.384C128.127 20.456 127.863 19.368 127.863 18.12C127.863 16.904 128.119 15.84 128.631 14.928C129.143 14 129.855 13.28 130.767 12.768C131.695 12.24 132.743 11.976 133.911 11.976C134.759 11.976 135.527 12.12 136.215 12.408C136.903 12.68 137.495 13.08 137.991 13.608C138.487 14.12 138.863 14.752 139.119 15.504C139.375 16.24 139.503 17.064 139.503 17.976C139.503 18.28 139.407 18.512 139.215 18.672C139.023 18.816 138.743 18.888 138.375 18.888H130.839V17.016H136.887L136.503 17.352C136.503 16.696 136.407 16.152 136.215 15.72C136.023 15.272 135.743 14.936 135.375 14.712C135.023 14.488 134.583 14.376 134.055 14.376C133.463 14.376 132.959 14.512 132.543 14.784C132.127 15.056 131.807 15.448 131.583 15.96C131.359 16.472 131.247 17.088 131.247 17.808V18C131.247 19.216 131.527 20.112 132.087 20.688C132.663 21.264 133.511 21.552 134.631 21.552C135.015 21.552 135.455 21.504 135.951 21.408C136.447 21.312 136.911 21.16 137.343 20.952C137.711 20.776 138.039 20.72 138.327 20.784C138.615 20.832 138.839 20.96 138.999 21.168C139.159 21.376 139.247 21.616 139.263 21.888C139.295 22.16 139.239 22.432 139.095 22.704C138.951 22.96 138.711 23.176 138.375 23.352C137.831 23.656 137.215 23.88 136.527 24.024C135.855 24.184 135.199 24.264 134.559 24.264ZM145.595 24.264C144.731 24.264 143.955 24.096 143.267 23.76C142.579 23.424 142.043 22.968 141.659 22.392C141.275 21.816 141.083 21.168 141.083 20.448C141.083 19.584 141.307 18.904 141.755 18.408C142.203 17.896 142.931 17.536 143.939 17.328C144.947 17.104 146.283 16.992 147.947 16.992H149.219V18.864H147.971C147.155 18.864 146.491 18.912 145.979 19.008C145.483 19.088 145.123 19.232 144.899 19.44C144.691 19.648 144.587 19.936 144.587 20.304C144.587 20.752 144.739 21.12 145.043 21.408C145.363 21.696 145.819 21.84 146.411 21.84C146.875 21.84 147.283 21.736 147.635 21.528C148.003 21.304 148.291 21.008 148.499 20.64C148.707 20.256 148.811 19.824 148.811 19.344V16.584C148.811 15.88 148.651 15.384 148.331 15.096C148.011 14.792 147.467 14.64 146.699 14.64C146.267 14.64 145.795 14.696 145.283 14.808C144.787 14.904 144.235 15.072 143.627 15.312C143.275 15.472 142.963 15.512 142.691 15.432C142.419 15.336 142.211 15.176 142.067 14.952C141.923 14.712 141.851 14.456 141.851 14.184C141.851 13.896 141.931 13.624 142.091 13.368C142.251 13.096 142.515 12.896 142.883 12.768C143.635 12.464 144.339 12.256 144.995 12.144C145.667 12.032 146.283 11.976 146.843 11.976C148.075 11.976 149.083 12.16 149.867 12.528C150.667 12.88 151.267 13.432 151.667 14.184C152.067 14.92 152.267 15.872 152.267 17.04V22.368C152.267 22.96 152.123 23.416 151.835 23.736C151.547 24.056 151.131 24.216 150.587 24.216C150.043 24.216 149.619 24.056 149.315 23.736C149.027 23.416 148.883 22.96 148.883 22.368V21.48L149.051 21.624C148.955 22.168 148.747 22.64 148.427 23.04C148.123 23.424 147.731 23.728 147.251 23.952C146.771 24.16 146.219 24.264 145.595 24.264ZM156.843 24.216C156.235 24.216 155.771 24.056 155.451 23.736C155.131 23.416 154.971 22.96 154.971 22.368V13.848C154.971 13.256 155.123 12.808 155.427 12.504C155.747 12.184 156.187 12.024 156.747 12.024C157.323 12.024 157.763 12.184 158.067 12.504C158.371 12.808 158.523 13.256 158.523 13.848V15.096H158.283C158.475 14.136 158.899 13.392 159.555 12.864C160.211 12.336 161.059 12.04 162.099 11.976C162.499 11.944 162.803 12.048 163.011 12.288C163.235 12.512 163.355 12.888 163.371 13.416C163.403 13.912 163.299 14.304 163.059 14.592C162.835 14.88 162.451 15.056 161.907 15.12L161.355 15.168C160.443 15.248 159.763 15.512 159.315 15.96C158.883 16.408 158.667 17.056 158.667 17.904V22.368C158.667 22.96 158.507 23.416 158.187 23.736C157.883 24.056 157.435 24.216 156.843 24.216Z" fill="#1A202C"/>
</g>
</g>
<defs>
<clipPath id="clip0_12_1640">
<rect width="176" height="32" fill="white" transform="translate(0.350006)"/>
</clipPath>
<clipPath id="clip1_12_1640">
<rect width="176" height="32" fill="white" transform="translate(0.350006)"/>
</clipPath>
</defs>
</svg>
