<svg width="200" height="200" viewBox="0 0 200 200" fill="none" xmlns="http://www.w3.org/2000/svg">
<rect width="200" height="200" rx="16" fill="#F3F5F7"/>
<path d="M32 44C32 37.3726 37.3726 32 44 32H156C162.627 32 168 37.3726 168 44V200H32V44Z" fill="white"/>
<path d="M148.171 86.144C147.611 86.144 147.091 86.04 146.611 85.832C146.131 85.616 145.723 85.324 145.387 84.956C145.051 84.588 144.803 84.164 144.643 83.684L145.843 83.18C146.059 83.732 146.375 84.156 146.791 84.452C147.207 84.748 147.687 84.896 148.231 84.896C148.551 84.896 148.831 84.848 149.071 84.752C149.311 84.648 149.495 84.504 149.623 84.32C149.759 84.136 149.827 83.924 149.827 83.684C149.827 83.356 149.735 83.096 149.551 82.904C149.367 82.712 149.095 82.56 148.735 82.448L147.055 81.92C146.383 81.712 145.871 81.396 145.519 80.972C145.167 80.54 144.991 80.036 144.991 79.46C144.991 78.956 145.115 78.516 145.363 78.14C145.611 77.756 145.951 77.456 146.383 77.24C146.823 77.024 147.323 76.916 147.883 76.916C148.419 76.916 148.907 77.012 149.347 77.204C149.787 77.388 150.163 77.644 150.475 77.972C150.795 78.3 151.027 78.68 151.171 79.112L149.995 79.628C149.819 79.156 149.543 78.792 149.167 78.536C148.799 78.28 148.371 78.152 147.883 78.152C147.587 78.152 147.327 78.204 147.103 78.308C146.879 78.404 146.703 78.548 146.575 78.74C146.455 78.924 146.395 79.14 146.395 79.388C146.395 79.676 146.487 79.932 146.671 80.156C146.855 80.38 147.135 80.548 147.511 80.66L149.071 81.152C149.783 81.368 150.319 81.68 150.679 82.088C151.039 82.488 151.219 82.988 151.219 83.588C151.219 84.084 151.087 84.524 150.823 84.908C150.567 85.292 150.211 85.596 149.755 85.82C149.299 86.036 148.771 86.144 148.171 86.144ZM147.619 87.2V75.86H148.579V87.2H147.619Z" fill="#C3D4E9"/>
<path d="M148.171 109.144C147.611 109.144 147.091 109.04 146.611 108.832C146.131 108.616 145.723 108.324 145.387 107.956C145.051 107.588 144.803 107.164 144.643 106.684L145.843 106.18C146.059 106.732 146.375 107.156 146.791 107.452C147.207 107.748 147.687 107.896 148.231 107.896C148.551 107.896 148.831 107.848 149.071 107.752C149.311 107.648 149.495 107.504 149.623 107.32C149.759 107.136 149.827 106.924 149.827 106.684C149.827 106.356 149.735 106.096 149.551 105.904C149.367 105.712 149.095 105.56 148.735 105.448L147.055 104.92C146.383 104.712 145.871 104.396 145.519 103.972C145.167 103.54 144.991 103.036 144.991 102.46C144.991 101.956 145.115 101.516 145.363 101.14C145.611 100.756 145.951 100.456 146.383 100.24C146.823 100.024 147.323 99.916 147.883 99.916C148.419 99.916 148.907 100.012 149.347 100.204C149.787 100.388 150.163 100.644 150.475 100.972C150.795 101.3 151.027 101.68 151.171 102.112L149.995 102.628C149.819 102.156 149.543 101.792 149.167 101.536C148.799 101.28 148.371 101.152 147.883 101.152C147.587 101.152 147.327 101.204 147.103 101.308C146.879 101.404 146.703 101.548 146.575 101.74C146.455 101.924 146.395 102.14 146.395 102.388C146.395 102.676 146.487 102.932 146.671 103.156C146.855 103.38 147.135 103.548 147.511 103.66L149.071 104.152C149.783 104.368 150.319 104.68 150.679 105.088C151.039 105.488 151.219 105.988 151.219 106.588C151.219 107.084 151.087 107.524 150.823 107.908C150.567 108.292 150.211 108.596 149.755 108.82C149.299 109.036 148.771 109.144 148.171 109.144ZM147.619 110.2V98.86H148.579V110.2H147.619Z" fill="#C3D4E9"/>
<path d="M148.171 132.144C147.611 132.144 147.091 132.04 146.611 131.832C146.131 131.616 145.723 131.324 145.387 130.956C145.051 130.588 144.803 130.164 144.643 129.684L145.843 129.18C146.059 129.732 146.375 130.156 146.791 130.452C147.207 130.748 147.687 130.896 148.231 130.896C148.551 130.896 148.831 130.848 149.071 130.752C149.311 130.648 149.495 130.504 149.623 130.32C149.759 130.136 149.827 129.924 149.827 129.684C149.827 129.356 149.735 129.096 149.551 128.904C149.367 128.712 149.095 128.56 148.735 128.448L147.055 127.92C146.383 127.712 145.871 127.396 145.519 126.972C145.167 126.54 144.991 126.036 144.991 125.46C144.991 124.956 145.115 124.516 145.363 124.14C145.611 123.756 145.951 123.456 146.383 123.24C146.823 123.024 147.323 122.916 147.883 122.916C148.419 122.916 148.907 123.012 149.347 123.204C149.787 123.388 150.163 123.644 150.475 123.972C150.795 124.3 151.027 124.68 151.171 125.112L149.995 125.628C149.819 125.156 149.543 124.792 149.167 124.536C148.799 124.28 148.371 124.152 147.883 124.152C147.587 124.152 147.327 124.204 147.103 124.308C146.879 124.404 146.703 124.548 146.575 124.74C146.455 124.924 146.395 125.14 146.395 125.388C146.395 125.676 146.487 125.932 146.671 126.156C146.855 126.38 147.135 126.548 147.511 126.66L149.071 127.152C149.783 127.368 150.319 127.68 150.679 128.088C151.039 128.488 151.219 128.988 151.219 129.588C151.219 130.084 151.087 130.524 150.823 130.908C150.567 131.292 150.211 131.596 149.755 131.82C149.299 132.036 148.771 132.144 148.171 132.144ZM147.619 133.2V121.86H148.579V133.2H147.619Z" fill="#C3D4E9"/>
<path d="M148.171 155.144C147.611 155.144 147.091 155.04 146.611 154.832C146.131 154.616 145.723 154.324 145.387 153.956C145.051 153.588 144.803 153.164 144.643 152.684L145.843 152.18C146.059 152.732 146.375 153.156 146.791 153.452C147.207 153.748 147.687 153.896 148.231 153.896C148.551 153.896 148.831 153.848 149.071 153.752C149.311 153.648 149.495 153.504 149.623 153.32C149.759 153.136 149.827 152.924 149.827 152.684C149.827 152.356 149.735 152.096 149.551 151.904C149.367 151.712 149.095 151.56 148.735 151.448L147.055 150.92C146.383 150.712 145.871 150.396 145.519 149.972C145.167 149.54 144.991 149.036 144.991 148.46C144.991 147.956 145.115 147.516 145.363 147.14C145.611 146.756 145.951 146.456 146.383 146.24C146.823 146.024 147.323 145.916 147.883 145.916C148.419 145.916 148.907 146.012 149.347 146.204C149.787 146.388 150.163 146.644 150.475 146.972C150.795 147.3 151.027 147.68 151.171 148.112L149.995 148.628C149.819 148.156 149.543 147.792 149.167 147.536C148.799 147.28 148.371 147.152 147.883 147.152C147.587 147.152 147.327 147.204 147.103 147.308C146.879 147.404 146.703 147.548 146.575 147.74C146.455 147.924 146.395 148.14 146.395 148.388C146.395 148.676 146.487 148.932 146.671 149.156C146.855 149.38 147.135 149.548 147.511 149.66L149.071 150.152C149.783 150.368 150.319 150.68 150.679 151.088C151.039 151.488 151.219 151.988 151.219 152.588C151.219 153.084 151.087 153.524 150.823 153.908C150.567 154.292 150.211 154.596 149.755 154.82C149.299 155.036 148.771 155.144 148.171 155.144ZM147.619 156.2V144.86H148.579V156.2H147.619Z" fill="#C3D4E9"/>
<path d="M148.171 178.144C147.611 178.144 147.091 178.04 146.611 177.832C146.131 177.616 145.723 177.324 145.387 176.956C145.051 176.588 144.803 176.164 144.643 175.684L145.843 175.18C146.059 175.732 146.375 176.156 146.791 176.452C147.207 176.748 147.687 176.896 148.231 176.896C148.551 176.896 148.831 176.848 149.071 176.752C149.311 176.648 149.495 176.504 149.623 176.32C149.759 176.136 149.827 175.924 149.827 175.684C149.827 175.356 149.735 175.096 149.551 174.904C149.367 174.712 149.095 174.56 148.735 174.448L147.055 173.92C146.383 173.712 145.871 173.396 145.519 172.972C145.167 172.54 144.991 172.036 144.991 171.46C144.991 170.956 145.115 170.516 145.363 170.14C145.611 169.756 145.951 169.456 146.383 169.24C146.823 169.024 147.323 168.916 147.883 168.916C148.419 168.916 148.907 169.012 149.347 169.204C149.787 169.388 150.163 169.644 150.475 169.972C150.795 170.3 151.027 170.68 151.171 171.112L149.995 171.628C149.819 171.156 149.543 170.792 149.167 170.536C148.799 170.28 148.371 170.152 147.883 170.152C147.587 170.152 147.327 170.204 147.103 170.308C146.879 170.404 146.703 170.548 146.575 170.74C146.455 170.924 146.395 171.14 146.395 171.388C146.395 171.676 146.487 171.932 146.671 172.156C146.855 172.38 147.135 172.548 147.511 172.66L149.071 173.152C149.783 173.368 150.319 173.68 150.679 174.088C151.039 174.488 151.219 174.988 151.219 175.588C151.219 176.084 151.087 176.524 150.823 176.908C150.567 177.292 150.211 177.596 149.755 177.82C149.299 178.036 148.771 178.144 148.171 178.144ZM147.619 179.2V167.86H148.579V179.2H147.619Z" fill="#C3D4E9"/>
<path d="M84.195 60V51.06H85.611V58.74H89.475V60H84.195ZM93.4238 60.144C92.7998 60.144 92.2278 59.996 91.7078 59.7C91.1958 59.404 90.7878 59 90.4838 58.488C90.1798 57.976 90.0278 57.396 90.0278 56.748C90.0278 56.092 90.1798 55.512 90.4838 55.008C90.7878 54.496 91.1958 54.096 91.7078 53.808C92.2198 53.512 92.7918 53.364 93.4238 53.364C94.0638 53.364 94.6358 53.512 95.1398 53.808C95.6518 54.096 96.0558 54.496 96.3518 55.008C96.6558 55.512 96.8078 56.092 96.8078 56.748C96.8078 57.404 96.6558 57.988 96.3518 58.5C96.0478 59.012 95.6398 59.416 95.1278 59.712C94.6158 60 94.0478 60.144 93.4238 60.144ZM93.4238 58.884C93.8078 58.884 94.1478 58.792 94.4438 58.608C94.7398 58.424 94.9718 58.172 95.1398 57.852C95.3158 57.524 95.4038 57.156 95.4038 56.748C95.4038 56.34 95.3158 55.976 95.1398 55.656C94.9718 55.336 94.7398 55.084 94.4438 54.9C94.1478 54.716 93.8078 54.624 93.4238 54.624C93.0478 54.624 92.7078 54.716 92.4038 54.9C92.1078 55.084 91.8718 55.336 91.6958 55.656C91.5278 55.976 91.4438 56.34 91.4438 56.748C91.4438 57.156 91.5278 57.524 91.6958 57.852C91.8718 58.172 92.1078 58.424 92.4038 58.608C92.7078 58.792 93.0478 58.884 93.4238 58.884ZM99.8356 60.144C99.3956 60.144 99.0076 60.068 98.6716 59.916C98.3436 59.756 98.0876 59.54 97.9036 59.268C97.7196 58.988 97.6276 58.66 97.6276 58.284C97.6276 57.932 97.7036 57.616 97.8556 57.336C98.0156 57.056 98.2596 56.82 98.5876 56.628C98.9156 56.436 99.3276 56.3 99.8236 56.22L102.08 55.848V56.916L100.088 57.264C99.7276 57.328 99.4636 57.444 99.2956 57.612C99.1276 57.772 99.0436 57.98 99.0436 58.236C99.0436 58.484 99.1356 58.688 99.3196 58.848C99.5116 59 99.7556 59.076 100.052 59.076C100.42 59.076 100.74 58.996 101.012 58.836C101.292 58.676 101.508 58.464 101.66 58.2C101.812 57.928 101.888 57.628 101.888 57.3V55.632C101.888 55.312 101.768 55.052 101.528 54.852C101.296 54.644 100.984 54.54 100.592 54.54C100.232 54.54 99.9156 54.636 99.6436 54.828C99.3796 55.012 99.1836 55.252 99.0556 55.548L97.9276 54.984C98.0476 54.664 98.2436 54.384 98.5156 54.144C98.7876 53.896 99.1036 53.704 99.4636 53.568C99.8316 53.432 100.22 53.364 100.628 53.364C101.14 53.364 101.592 53.46 101.984 53.652C102.384 53.844 102.692 54.112 102.908 54.456C103.132 54.792 103.244 55.184 103.244 55.632V60H101.948V58.824L102.224 58.86C102.072 59.124 101.876 59.352 101.636 59.544C101.404 59.736 101.136 59.884 100.832 59.988C100.536 60.092 100.204 60.144 99.8356 60.144ZM104.589 60V53.508H105.885V54.78L105.729 54.612C105.889 54.204 106.145 53.896 106.497 53.688C106.849 53.472 107.257 53.364 107.721 53.364C108.201 53.364 108.625 53.468 108.993 53.676C109.361 53.884 109.649 54.172 109.857 54.54C110.065 54.908 110.169 55.332 110.169 55.812V60H108.825V56.172C108.825 55.844 108.765 55.568 108.645 55.344C108.525 55.112 108.353 54.936 108.129 54.816C107.913 54.688 107.665 54.624 107.385 54.624C107.105 54.624 106.853 54.688 106.629 54.816C106.413 54.936 106.245 55.112 106.125 55.344C106.005 55.576 105.945 55.852 105.945 56.172V60H104.589ZM113.78 60.144C113.116 60.144 112.532 59.98 112.028 59.652C111.532 59.324 111.184 58.884 110.984 58.332L112.028 57.84C112.204 58.208 112.444 58.5 112.748 58.716C113.06 58.932 113.404 59.04 113.78 59.04C114.1 59.04 114.36 58.968 114.56 58.824C114.76 58.68 114.86 58.484 114.86 58.236C114.86 58.076 114.816 57.948 114.728 57.852C114.64 57.748 114.528 57.664 114.392 57.6C114.264 57.536 114.132 57.488 113.996 57.456L112.976 57.168C112.416 57.008 111.996 56.768 111.716 56.448C111.444 56.12 111.308 55.74 111.308 55.308C111.308 54.916 111.408 54.576 111.608 54.288C111.808 53.992 112.084 53.764 112.436 53.604C112.788 53.444 113.184 53.364 113.624 53.364C114.216 53.364 114.744 53.512 115.208 53.808C115.672 54.096 116 54.5 116.192 55.02L115.148 55.512C115.02 55.2 114.816 54.952 114.536 54.768C114.264 54.584 113.956 54.492 113.612 54.492C113.316 54.492 113.08 54.564 112.904 54.708C112.728 54.844 112.64 55.024 112.64 55.248C112.64 55.4 112.68 55.528 112.76 55.632C112.84 55.728 112.944 55.808 113.072 55.872C113.2 55.928 113.332 55.976 113.468 56.016L114.524 56.328C115.06 56.48 115.472 56.72 115.76 57.048C116.048 57.368 116.192 57.752 116.192 58.2C116.192 58.584 116.088 58.924 115.88 59.22C115.68 59.508 115.4 59.736 115.04 59.904C114.68 60.064 114.26 60.144 113.78 60.144Z" fill="#1A202C"/>
<rect x="48" y="79" width="41" height="5" rx="2.5" fill="#C3D4E9"/>
<rect x="48" y="102" width="79" height="5" rx="2.5" fill="#C3D4E9"/>
<rect x="48" y="125" width="60" height="5" rx="2.5" fill="#C3D4E9"/>
<rect x="48" y="148" width="31" height="5" rx="2.5" fill="#C3D4E9"/>
<rect x="83" y="148" width="31" height="5" rx="2.5" fill="#C3D4E9"/>
<rect x="48" y="171" width="75" height="5" rx="2.5" fill="#C3D4E9"/>
</svg>
