<svg width="44" height="44" viewBox="0 0 44 44" fill="none" xmlns="http://www.w3.org/2000/svg">
<g clip-path="url(#clip0_344_3888)">
<g clip-path="url(#clip1_344_3888)">
<path d="M25.665 9.167C25.665 7.14177 24.0235 5.5 21.9985 5.5C19.9736 5.5 18.332 7.14177 18.332 9.167V34.833C18.332 36.8582 19.9736 38.5 21.9985 38.5C24.0235 38.5 25.665 36.8582 25.665 34.833V9.167Z" fill="#007AFF"/>
<path opacity="0.4" d="M3.66603 18.333C3.65799 17.8464 3.74689 17.3631 3.92754 16.9112C4.10819 16.4594 4.37698 16.048 4.71825 15.701C5.05951 15.3541 5.46642 15.0785 5.91525 14.8904C6.36409 14.7023 6.84587 14.6055 7.33253 14.6055C7.81918 14.6055 8.30097 14.7023 8.7498 14.8904C9.19864 15.0785 9.60555 15.3541 9.94681 15.701C10.2881 16.048 10.5569 16.4594 10.7375 16.9112C10.9182 17.3631 11.0071 17.8464 10.999 18.333V34.833C11.0071 35.3196 10.9182 35.8029 10.7375 36.2548C10.5569 36.7067 10.2881 37.1181 9.94681 37.465C9.60555 37.812 9.19864 38.0875 8.7498 38.2756C8.30097 38.4637 7.81918 38.5606 7.33253 38.5606C6.84587 38.5606 6.36409 38.4637 5.91525 38.2756C5.46642 38.0875 5.05951 37.812 4.71825 37.465C4.37698 37.1181 4.10819 36.7067 3.92754 36.2548C3.74689 35.8029 3.65799 35.3196 3.66603 34.833V18.333ZM33 18.333C32.992 17.8464 33.0809 17.3631 33.2615 16.9112C33.4422 16.4594 33.711 16.048 34.0522 15.701C34.3935 15.3541 34.8004 15.0785 35.2493 14.8904C35.6981 14.7023 36.1799 14.6055 36.6665 14.6055C37.1532 14.6055 37.635 14.7023 38.0838 14.8904C38.5326 15.0785 38.9395 15.3541 39.2808 15.701C39.6221 16.048 39.8909 16.4594 40.0715 16.9112C40.2522 17.3631 40.3411 17.8464 40.333 18.333V34.833C40.3171 35.795 39.9239 36.7121 39.238 37.3867C38.5521 38.0614 37.6286 38.4395 36.6665 38.4395C35.7045 38.4395 34.7809 38.0614 34.0951 37.3867C33.4092 36.7121 33.0159 35.795 33 34.833V18.333Z" fill="#007AFF"/>
</g>
</g>
<defs>
<clipPath id="clip0_344_3888">
<rect width="44" height="44" rx="10" fill="white"/>
</clipPath>
<clipPath id="clip1_344_3888">
<rect width="44" height="44" fill="white"/>
</clipPath>
</defs>
</svg>
