<svg width="44" height="44" viewBox="0 0 44 44" fill="none" xmlns="http://www.w3.org/2000/svg">
<g clip-path="url(#clip0_344_3963)">
<g clip-path="url(#clip1_344_3963)">
<path fill-rule="evenodd" clip-rule="evenodd" d="M18.333 2.29199C19.093 2.29199 19.708 2.90699 19.708 3.66699V7.33299H16.958V3.66699C16.958 2.90699 17.573 2.29199 18.333 2.29199ZM25.666 2.29199C26.426 2.29199 27.041 2.90699 27.041 3.66699V7.33299H24.291V3.66699C24.291 2.90699 24.907 2.29199 25.666 2.29199ZM2.29102 18.333C2.29102 17.573 2.90702 16.958 3.66602 16.958H7.33302V19.708H3.66602C2.90602 19.708 2.29102 19.093 2.29102 18.333ZM36.666 16.958H40.333C40.6977 16.958 41.0474 17.1029 41.3053 17.3607C41.5631 17.6186 41.708 17.9683 41.708 18.333C41.708 18.6977 41.5631 19.0474 41.3053 19.3053C41.0474 19.5631 40.6977 19.708 40.333 19.708H36.666V16.958ZM2.29102 25.667C2.29102 24.907 2.90702 24.292 3.66602 24.292H7.33302V27.042H3.66602C2.90602 27.042 2.29102 26.426 2.29102 25.667ZM36.666 24.292H40.333C40.6977 24.292 41.0474 24.4369 41.3053 24.6947C41.5631 24.9526 41.708 25.3023 41.708 25.667C41.708 26.0317 41.5631 26.3814 41.3053 26.6393C41.0474 26.8971 40.6977 27.042 40.333 27.042H36.666V24.292ZM19.708 36.667V40.333C19.708 40.6977 19.5631 41.0474 19.3053 41.3053C19.0474 41.5631 18.6977 41.708 18.333 41.708C17.9683 41.708 17.6186 41.5631 17.3607 41.3053C17.1029 41.0474 16.958 40.6977 16.958 40.333V36.667H19.708ZM27.041 36.667V40.333C27.041 40.6977 26.8961 41.0474 26.6383 41.3053C26.3804 41.5631 26.0307 41.708 25.666 41.708C25.3013 41.708 24.9516 41.5631 24.6937 41.3053C24.4359 41.0474 24.291 40.6977 24.291 40.333V36.667H27.041Z" fill="#007AFF"/>
<path opacity="0.4" d="M7.33203 14.667C7.3319 13.7039 7.52148 12.7503 7.88994 11.8605C8.25839 10.9707 8.79852 10.1622 9.47946 9.48115C10.1604 8.80011 10.9688 8.25987 11.8586 7.89129C12.7483 7.52271 13.702 7.33301 14.665 7.33301H29.332C30.2951 7.33301 31.2487 7.52271 32.1385 7.89129C33.0282 8.25987 33.8367 8.80011 34.5176 9.48115C35.1985 10.1622 35.7387 10.9707 36.1071 11.8605C36.4756 12.7503 36.6652 13.7039 36.665 14.667V29.333C36.6652 30.2961 36.4756 31.2497 36.1071 32.1395C35.7387 33.0293 35.1985 33.8378 34.5176 34.5189C33.8367 35.1999 33.0282 35.7401 32.1385 36.1087C31.2487 36.4773 30.2951 36.667 29.332 36.667H14.665C13.702 36.667 12.7483 36.4773 11.8586 36.1087C10.9688 35.7401 10.1604 35.1999 9.47946 34.5189C8.79852 33.8378 8.25839 33.0293 7.88994 32.1395C7.52148 31.2497 7.3319 30.2961 7.33203 29.333V14.667Z" fill="#007AFF"/>
<path d="M25.5 16.5H18.5C17.3954 16.5 16.5 17.3954 16.5 18.5V25.5C16.5 26.6046 17.3954 27.5 18.5 27.5H25.5C26.6046 27.5 27.5 26.6046 27.5 25.5V18.5C27.5 17.3954 26.6046 16.5 25.5 16.5Z" fill="#007AFF"/>
</g>
</g>
<defs>
<clipPath id="clip0_344_3963">
<rect width="44" height="44" rx="10" fill="white"/>
</clipPath>
<clipPath id="clip1_344_3963">
<rect width="44" height="44" fill="white"/>
</clipPath>
</defs>
</svg>
