<svg width="44" height="44" viewBox="0 0 44 44" fill="none" xmlns="http://www.w3.org/2000/svg">
<g clip-path="url(#clip0_344_3906)">
<g clip-path="url(#clip1_344_3906)">
<path opacity="0.4" d="M20.4819 39.6441L5.50395 32.8361C4.07095 32.1841 4.07095 30.1491 5.50395 29.4981L20.4819 22.6901C20.9585 22.4734 21.476 22.3613 21.9994 22.3613C22.5229 22.3613 23.0404 22.4734 23.5169 22.6901L38.4939 29.4981C39.9269 30.1481 39.9269 32.1841 38.4939 32.8361L23.5169 39.6441C23.0404 39.8607 22.5229 39.9728 21.9994 39.9728C21.476 39.9728 20.9585 39.8607 20.4819 39.6441Z" fill="#007AFF"/>
<path d="M20.4819 30.4771L5.50395 23.6691C4.07095 23.0181 4.07095 20.9821 5.50395 20.3311L20.4819 13.5231C20.9585 13.3064 21.476 13.1943 21.9994 13.1943C22.5229 13.1943 23.0404 13.3064 23.5169 13.5231L38.4939 20.3311C39.9269 20.9821 39.9269 23.0181 38.4939 23.6691L23.5169 30.4771C23.0404 30.6937 22.5229 30.8058 21.9994 30.8058C21.476 30.8058 20.9585 30.6937 20.4819 30.4771Z" fill="#007AFF"/>
<path opacity="0.4" d="M20.4819 21.3101L5.50395 14.5021C4.07095 13.8511 4.07095 11.8161 5.50395 11.1641L20.4819 4.35607C20.9585 4.13943 21.476 4.02734 21.9994 4.02734C22.5229 4.02734 23.0404 4.13943 23.5169 4.35607L38.4939 11.1641C39.9269 11.8161 39.9269 13.8511 38.4939 14.5021L23.5169 21.3101C23.0404 21.5267 22.5229 21.6388 21.9994 21.6388C21.476 21.6388 20.9585 21.5267 20.4819 21.3101Z" fill="#007AFF"/>
</g>
</g>
<defs>
<clipPath id="clip0_344_3906">
<rect width="44" height="44" rx="10" fill="white"/>
</clipPath>
<clipPath id="clip1_344_3906">
<rect width="44" height="44" fill="white"/>
</clipPath>
</defs>
</svg>
