<svg width="44" height="44" viewBox="0 0 44 44" fill="none" xmlns="http://www.w3.org/2000/svg">
<g clip-path="url(#clip0_344_3982)">
<g clip-path="url(#clip1_344_3982)">
<path opacity="0.4" d="M21.999 40.333C32.1241 40.333 40.332 32.125 40.332 22C40.332 11.875 32.1241 3.66699 21.999 3.66699C11.874 3.66699 3.66602 11.875 3.66602 22C3.66602 32.125 11.874 40.333 21.999 40.333Z" fill="#007AFF"/>
<path fill-rule="evenodd" clip-rule="evenodd" d="M17.52 14.798C17.817 13.094 18.214 11.562 18.686 10.264C19.224 8.78499 19.836 7.67099 20.457 6.94799C21.082 6.22199 21.607 6.00699 21.999 6.00699C22.392 6.00699 22.917 6.22199 23.541 6.94799C24.163 7.67099 24.775 8.78499 25.313 10.264C25.785 11.562 26.183 13.094 26.479 14.798C24.9898 14.6572 23.4948 14.5871 21.999 14.588C20.5032 14.5871 19.0082 14.6572 17.519 14.798H17.52ZM15.099 15.099C15.425 12.995 15.897 11.085 16.486 9.46399C17.078 7.83599 17.811 6.43699 18.683 5.42299C19.551 4.41299 20.668 3.66699 21.999 3.66699C23.33 3.66699 24.447 4.41199 25.316 5.42299C26.188 6.43699 26.92 7.83599 27.512 9.46299C28.102 11.085 28.574 12.995 28.9 15.099C31.004 15.425 32.914 15.897 34.535 16.487C36.163 17.079 37.562 17.811 38.577 18.683C39.587 19.553 40.333 20.669 40.333 22C40.333 23.331 39.587 24.448 38.577 25.317C37.562 26.189 36.163 26.921 34.535 27.513C32.914 28.103 31.005 28.575 28.9 28.901C28.574 31.005 28.102 32.914 27.512 34.536C26.92 36.163 26.188 37.563 25.316 38.577C24.447 39.587 23.33 40.333 21.999 40.333C20.669 40.333 19.551 39.588 18.683 38.577C17.811 37.563 17.078 36.163 16.486 34.536C15.896 32.914 15.425 31.005 15.098 28.901C12.994 28.575 11.085 28.102 9.46302 27.513C7.83602 26.921 6.43602 26.189 5.42302 25.317C4.41202 24.447 3.66602 23.331 3.66602 22C3.66602 20.669 4.41202 19.552 5.42202 18.683C6.43602 17.811 7.83602 17.079 9.46302 16.487C11.085 15.897 12.994 15.425 15.099 15.099ZM14.797 26.479C13.093 26.183 11.561 25.785 10.263 25.313C8.78502 24.776 7.67002 24.163 6.94802 23.542C6.22102 22.917 6.00602 22.392 6.00602 22C6.00602 21.608 6.22102 21.082 6.94802 20.458C7.67002 19.837 8.78502 19.224 10.263 18.687C11.562 18.214 13.093 17.817 14.797 17.52C14.6566 19.0092 14.5868 20.5042 14.588 22C14.5871 23.4958 14.6572 24.9908 14.798 26.48L14.797 26.479ZM17.184 26.815C17.0118 25.2158 16.9263 23.6084 16.928 22C16.928 20.32 17.018 18.703 17.184 17.185C18.7835 17.0127 20.3912 16.9273 22 16.929C23.681 16.929 25.297 17.019 26.816 17.185C26.981 18.703 27.071 20.319 27.071 22C27.071 23.68 26.981 25.297 26.815 26.815C25.2158 26.9872 23.6085 27.0727 22 27.071C20.32 27.071 18.702 26.981 17.184 26.815ZM17.52 29.202C17.817 30.906 18.214 32.438 18.686 33.736C19.224 35.215 19.836 36.329 20.457 37.051C21.082 37.778 21.607 37.993 21.999 37.993C22.392 37.993 22.917 37.778 23.541 37.051C24.163 36.329 24.775 35.215 25.313 33.736C25.785 32.438 26.183 30.906 26.479 29.202C24.9898 29.3428 23.4948 29.4129 21.999 29.412C20.5032 29.4129 19.0082 29.3428 17.519 29.202H17.52ZM29.2 26.479C30.904 26.183 32.436 25.785 33.735 25.313C35.213 24.776 36.327 24.163 37.05 23.542C37.776 22.917 37.991 22.392 37.991 22C37.991 21.608 37.776 21.082 37.05 20.458C36.327 19.837 35.213 19.224 33.734 18.687C32.436 18.214 30.904 17.817 29.2 17.52C29.3408 19.0092 29.4109 20.5042 29.41 22C29.4109 23.4958 29.3408 24.9898 29.2 26.479Z" fill="#007AFF"/>
</g>
</g>
<defs>
<clipPath id="clip0_344_3982">
<rect width="44" height="44" rx="10" fill="white"/>
</clipPath>
<clipPath id="clip1_344_3982">
<rect width="44" height="44" fill="white"/>
</clipPath>
</defs>
</svg>
