<svg width="95" height="49" viewBox="0 0 95 49" fill="none" xmlns="http://www.w3.org/2000/svg">
<path d="M95 47.5C95 34.9022 89.9955 22.8204 81.0876 13.9124C72.1796 5.00445 60.0978 9.62316e-07 47.5 1.12098e-08C34.9022 -9.39896e-07 22.8204 5.00445 13.9124 13.9124C5.00445 22.8204 1.96666e-06 34.9022 6.44477e-08 47.5H11.875C11.875 38.0517 15.6283 28.9903 22.3093 22.3093C28.9903 15.6283 38.0517 11.875 47.5 11.875C56.9483 11.875 66.0097 15.6283 72.6907 22.3093C79.3717 28.9903 83.125 38.0517 83.125 47.5H95Z" fill="#1D4ED8"/>
<path d="M24.4949 5.94264C17.052 10.0628 10.8522 16.1063 6.5434 23.4416C2.23457 30.7769 -0.0252035 39.1347 0.000212042 47.6419L11.8752 47.6064C11.8561 41.2261 13.5509 34.9577 16.7826 29.4562C20.0142 23.9547 24.664 19.4221 30.2462 16.332L24.4949 5.94264Z" fill="#BAE6FD"/>
<path d="M71.25 6.36379C64.0471 2.20519 55.8785 0.0107715 47.5613 3.9554e-05C39.2441 -0.0106924 31.0699 2.16264 23.8562 6.30264L29.7672 16.602C35.1774 13.497 41.3081 11.867 47.546 11.875C53.7839 11.8831 59.9103 13.5289 65.3125 16.6478L71.25 6.36379Z" fill="#60A5FA"/>
<path d="M13.7999 25.1689L49.5989 43.0336L47.1707 47.2393L13.7999 25.1689Z" fill="#272525"/>
<path d="M48.9425 42.4113C50.2046 43.14 50.6371 44.7539 49.9084 46.0161C49.1796 47.2783 47.5657 47.7107 46.3036 46.982C45.0414 46.2533 44.609 44.6394 45.3377 43.3772C46.0664 42.115 47.6803 41.6826 48.9425 42.4113Z" fill="#272525"/>
</svg>
