<svg width="95" height="49" viewBox="0 0 95 49" fill="none" xmlns="http://www.w3.org/2000/svg">
<path d="M95 47.5001C95 34.9023 89.9955 22.8205 81.0876 13.9126C72.1796 5.00457 60.0978 0.000123033 47.5 0.000122082C34.9022 0.00012113 22.8204 5.00457 13.9124 13.9125C5.00445 22.8205 1.96666e-06 34.9023 6.44477e-08 47.5001H11.875C11.875 38.0518 15.6283 28.9904 22.3093 22.3094C28.9903 15.6285 38.0517 11.8751 47.5 11.8751C56.9483 11.8751 66.0097 15.6285 72.6907 22.3094C79.3717 28.9904 83.125 38.0518 83.125 47.5001H95Z" fill="#6B7280"/>
<path d="M24.4949 5.94276C17.052 10.063 10.8522 16.1064 6.5434 23.4417C2.23457 30.777 -0.0252035 39.1349 0.000212042 47.642L11.8752 47.6066C11.8561 41.2262 13.5509 34.9578 16.7826 29.4563C20.0142 23.9548 24.664 19.4222 30.2462 16.3321L24.4949 5.94276Z" fill="#EFF4FF"/>
<path d="M71.25 6.36391C64.0471 2.20531 55.8785 0.0108936 47.5613 0.000161624C39.2441 -0.0105703 31.0699 2.16276 23.8562 6.30276L29.7672 16.6021C35.1774 13.4971 41.3081 11.8671 47.546 11.8752C53.7839 11.8832 59.9103 13.529 65.3125 16.648L71.25 6.36391Z" fill="#E1E6EF"/>
<path d="M46.8085 44.2067L46.8092 47.1774L44.6605 42.8223L46.8085 44.2067Z" fill="#272525"/>
<path d="M47.6913 46.9772C46.3843 47.622 44.802 47.0852 44.1572 45.7782C43.5123 44.4712 44.0491 42.889 45.3561 42.2441C46.6631 41.5993 48.2454 42.1361 48.8902 43.4431C49.5351 44.7501 48.9983 46.3324 47.6913 46.9772Z" fill="#272525"/>
</svg>
